<?xml version="1.0" standalone="no"?>
<!DOCTYPE svg PUBLIC "-//W3C//DTD SVG 20010904//EN"
 "http://www.w3.org/TR/2001/REC-SVG-20010904/DTD/svg10.dtd">
<svg version="1.0" xmlns="http://www.w3.org/2000/svg"
 width="500.000000pt" height="500.000000pt" viewBox="0 0 500.000000 500.000000"
 preserveAspectRatio="xMidYMid meet">
<metadata>
Created by potrace 1.14, written by Peter Selinger 2001-2017
</metadata>
<g transform="translate(0.000000,500.000000) scale(0.100000,-0.100000)"
fill="#000000" stroke="none">
<path d="M0 4945 c0 -41 4 -56 17 -64 17 -10 17 -10 1 -11 -14 0 -18 -9 -18
-44 0 -41 1 -43 25 -38 14 2 25 10 25 18 0 18 70 37 87 22 7 -6 13 -17 13 -24
0 -11 17 -14 70 -14 l70 0 0 43 1 42 39 -45 c30 -35 39 -53 40 -82 0 -26 -5
-37 -17 -40 -15 -3 -15 -4 0 -17 15 -12 17 -11 17 3 0 22 101 22 135 0 23 -15
25 -15 25 0 0 20 5 20 35 0 13 -9 30 -14 37 -11 16 5 67 -19 91 -45 10 -10 32
-21 48 -25 16 -3 29 -9 29 -14 0 -5 18 -9 40 -9 33 0 40 4 40 19 0 17 9 19 99
18 l98 0 9 -35 c9 -35 34 -57 34 -30 0 21 65 41 103 32 50 -11 149 -11 185 0
26 8 32 15 32 38 0 25 3 28 36 28 19 0 42 -7 50 -15 16 -16 70 -21 76 -6 5 13
78 24 78 11 0 -5 18 -10 40 -10 22 0 40 -2 40 -5 0 -2 -9 -19 -20 -37 -25 -41
-25 -48 -1 -48 11 0 21 -8 23 -19 2 -15 7 -17 28 -9 24 10 24 11 5 18 -11 5
-14 9 -6 9 13 1 13 5 -5 67 -5 17 0 24 25 32 25 9 31 8 31 -4 0 -11 14 -14 58
-14 62 0 97 19 104 55 3 17 6 16 21 -12 21 -40 21 -43 -3 -43 -13 0 -20 -7
-20 -20 0 -17 7 -20 40 -20 31 0 40 4 40 18 0 9 18 37 40 62 38 43 39 44 40
19 0 -31 14 -45 53 -54 23 -6 27 -4 27 13 0 11 -7 25 -15 32 -21 17 -19 30 5
30 18 0 20 -7 20 -54 0 -61 14 -79 36 -47 12 17 26 21 69 21 51 0 55 2 86 42
l34 42 8 -36 c15 -62 77 -65 171 -8 36 22 70 40 75 40 12 0 71 -59 71 -71 0
-8 61 -14 96 -10 6 1 17 -17 24 -39 7 -22 19 -40 26 -40 7 0 14 -10 17 -22 3
-22 4 -22 12 -4 6 13 5 21 -3 24 -7 2 -12 21 -12 43 0 38 1 39 34 39 19 0 36
6 39 13 3 9 -6 11 -34 9 -24 -3 -39 0 -39 7 0 15 166 15 209 0 35 -12 41 -29
11 -29 -23 0 -24 -5 -9 -49 11 -31 12 -31 80 -31 55 0 67 3 63 14 -3 8 -12 17
-20 20 -28 11 -15 36 19 37 l32 1 -30 7 -30 7 32 17 c41 22 46 21 40 -3 -5
-19 0 -20 79 -20 82 0 84 1 84 24 0 23 4 24 82 31 63 6 91 13 120 33 21 13 38
28 38 32 0 8 79 45 83 39 1 -2 10 -17 19 -34 9 -16 25 -32 35 -34 9 -2 22 -9
28 -16 5 -7 25 -16 43 -20 25 -5 32 -3 32 9 0 8 -10 17 -22 19 -22 4 -22 4 -2
6 22 1 41 42 29 61 -3 5 12 -3 35 -17 34 -23 55 -55 33 -52 -5 1 -21 1 -36 0
l-29 -1 25 -30 c14 -16 27 -35 30 -42 5 -11 7 -11 15 0 5 7 16 10 25 6 10 -4
25 4 40 20 13 14 29 26 35 26 21 0 25 23 7 37 -17 12 -20 10 -31 -17 -13 -30
-37 -39 -49 -19 -4 6 -2 30 5 55 9 32 18 44 31 44 11 0 19 5 19 10 0 6 15 10
33 10 17 0 53 7 79 17 43 15 47 20 50 52 l3 36 20 -22 c16 -19 30 -23 77 -23
l58 0 0 40 0 40 40 0 c22 0 40 5 40 10 0 12 77 14 82 2 2 -5 18 2 37 15 l34
23 -2342 0 -2341 0 0 -55z m465 -118 l15 -37 -51 0 -51 0 32 40 c18 23 34 39
36 37 2 -1 10 -20 19 -40z m225 -32 c0 -35 -3 -43 -15 -39 -21 8 -28 40 -13
63 20 32 28 25 28 -24z m3377 -1 c-3 -3 -18 -4 -33 -2 -27 3 -27 4 -10 21 16
15 19 15 33 2 8 -9 13 -18 10 -21z m-2337 -44 c0 -5 -7 -10 -16 -10 -8 0 -12
5 -9 10 3 6 10 10 16 10 5 0 9 -4 9 -10z m-720 -25 c0 -9 -9 -15 -22 -15 -22
1 -23 1 -4 15 25 19 26 19 26 0z m-125 -5 c3 -5 -3 -10 -14 -10 -12 0 -21 5
-21 10 0 6 6 10 14 10 8 0 18 -4 21 -10z m1185 0 c0 -5 -4 -10 -10 -10 -5 0
-10 5 -10 10 0 6 5 10 10 10 6 0 10 -4 10 -10z m1180 -75 c0 -10 -10 -15 -32
-15 -31 1 -32 1 -14 15 25 19 46 19 46 0z m-1895 -5 c3 -5 -1 -10 -9 -10 -9 0
-16 5 -16 10 0 6 4 10 9 10 6 0 13 -4 16 -10z"/>
<path d="M4690 4960 c0 -5 18 -10 40 -10 22 0 40 5 40 10 0 6 -18 10 -40 10
-22 0 -40 -4 -40 -10z"/>
<path d="M4683 4926 c10 -21 19 -26 50 -26 30 0 37 4 37 20 0 16 -7 20 -34 20
-19 0 -41 3 -50 6 -13 5 -13 2 -3 -20z"/>
<path d="M4930 4868 c0 -17 3 -19 12 -10 7 7 22 12 35 12 13 0 23 5 23 10 0 6
-16 10 -35 10 -29 0 -35 -4 -35 -22z"/>
<path d="M4770 4854 c0 -9 5 -14 12 -12 18 6 21 28 4 28 -9 0 -16 -7 -16 -16z"/>
<path d="M4335 4830 c9 -16 20 -30 25 -30 6 0 10 14 10 30 0 25 -4 30 -25 30
-25 0 -25 0 -10 -30z"/>
<path d="M4850 4779 c0 -5 5 -7 10 -4 6 3 10 8 10 11 0 2 -4 4 -10 4 -5 0 -10
-5 -10 -11z"/>
<path d="M50 4750 c0 -29 3 -32 23 -26 12 3 30 6 40 6 10 0 17 8 17 20 0 12
-7 20 -17 20 -10 0 -28 3 -40 6 -20 6 -23 3 -23 -26z"/>
<path d="M3730 4725 c0 -8 -7 -15 -17 -15 -14 0 -14 -2 2 -20 17 -19 17 -21 0
-40 -16 -18 -16 -20 -2 -20 10 0 17 6 17 14 0 8 8 17 19 21 10 3 26 14 36 25
16 18 15 19 -14 34 -37 20 -41 20 -41 1z"/>
<path d="M4211 4694 c0 -11 3 -14 6 -6 3 7 2 16 -1 19 -3 4 -6 -2 -5 -13z"/>
<path d="M3610 4639 c-27 -4 -34 -7 -18 -7 16 -1 32 -10 38 -22 8 -15 15 -17
32 -11 54 20 15 49 -52 40z"/>
<path d="M2430 4620 c0 -5 5 -10 10 -10 6 0 10 5 10 10 0 6 -4 10 -10 10 -5 0
-10 -4 -10 -10z"/>
<path d="M2835 4580 c-10 -11 -15 -20 -11 -20 11 0 39 30 34 36 -3 2 -13 -5
-23 -16z"/>
<path d="M2746 4574 c-18 -18 -18 -19 -2 -22 10 -2 20 -1 23 1 2 3 3 13 1 23
-3 16 -4 16 -22 -2z"/>
<path d="M3010 4571 c0 -12 5 -21 10 -21 6 0 10 6 10 14 0 8 -4 18 -10 21 -5
3 -10 -3 -10 -14z"/>
<path d="M748 4553 c7 -3 16 -2 19 1 4 3 -2 6 -13 5 -11 0 -14 -3 -6 -6z"/>
<path d="M877 4553 c18 -2 50 -2 70 0 21 2 7 4 -32 4 -38 0 -55 -2 -38 -4z"/>
<path d="M2782 4548 c-7 -7 -12 -16 -12 -21 0 -5 7 -1 16 8 9 9 14 18 12 20
-2 3 -10 -1 -16 -7z"/>
<path d="M1321 4513 c-1 -32 3 -43 14 -43 17 0 20 21 6 36 -5 5 -11 18 -14 29
-3 11 -5 1 -6 -22z"/>
<path d="M1914 4534 c3 -9 6 -18 6 -20 0 -12 29 -2 34 12 9 23 8 24 -20 24
-20 0 -25 -4 -20 -16z"/>
<path d="M1970 4535 c0 -19 21 -19 46 0 18 14 17 14 -13 15 -23 0 -33 -5 -33
-15z"/>
<path d="M2610 4539 c0 -5 5 -7 10 -4 6 3 10 8 10 11 0 2 -4 4 -10 4 -5 0 -10
-5 -10 -11z"/>
<path d="M820 4480 c0 -5 7 -10 15 -10 8 0 15 5 15 10 0 6 -7 10 -15 10 -8 0
-15 -4 -15 -10z"/>
<path d="M1120 4460 c0 -5 5 -10 10 -10 6 0 10 5 10 10 0 6 -4 10 -10 10 -5 0
-10 -4 -10 -10z"/>
<path d="M1226 4454 c-11 -29 -7 -64 9 -64 11 0 15 11 15 40 0 40 -13 53 -24
24z"/>
<path d="M2595 4460 c3 -5 8 -10 11 -10 2 0 4 5 4 10 0 6 -5 10 -11 10 -5 0
-7 -4 -4 -10z"/>
<path d="M2003 4438 c-31 -10 -54 -38 -31 -38 26 0 78 25 78 37 0 15 -3 15
-47 1z"/>
<path d="M2897 3109 c6 -22 33 -26 33 -5 0 7 -8 16 -19 19 -14 3 -17 0 -14
-14z"/>
<path d="M2850 2825 c-7 -63 -14 -115 -17 -115 -2 0 -9 4 -16 10 -55 44 -76
60 -82 60 -4 0 -30 14 -58 31 -77 47 -189 81 -252 75 -28 -3 -64 -10 -79 -16
-15 -5 -40 -10 -55 -10 -34 0 -101 -26 -101 -40 0 -5 -6 -7 -14 -4 -8 3 -17 0
-21 -5 -3 -6 -10 -9 -14 -7 -4 3 -25 -11 -47 -30 -21 -20 -51 -43 -66 -52 -16
-9 -28 -20 -28 -24 0 -4 -6 -8 -14 -8 -8 0 -27 -13 -43 -30 -82 -86 -98 -117
-124 -245 -19 -93 -24 -182 -11 -201 4 -7 8 14 9 45 2 74 25 160 56 214 55 93
248 260 321 277 17 4 42 10 55 15 15 5 21 4 17 -3 -4 -7 4 -8 26 -1 42 12 188
12 188 0 0 -5 11 -8 25 -7 24 3 47 -13 44 -30 -1 -5 -1 -21 0 -36 1 -24 6 -28
57 -38 46 -10 53 -14 43 -26 -6 -8 -22 -14 -35 -14 -25 0 -33 -15 -11 -23 7
-4 3 -8 -10 -12 -13 -4 -23 -11 -23 -16 0 -5 -13 -9 -30 -9 -16 0 -30 -4 -30
-9 0 -6 15 -8 33 -7 17 2 24 1 15 -1 -10 -2 -18 -13 -18 -24 0 -22 3 -23 33
-8 14 6 9 -1 -11 -18 -46 -40 -55 -87 -32 -169 9 -35 16 -64 14 -64 -9 0 -32
60 -39 100 -4 25 -14 54 -22 65 -13 19 -14 18 -8 -10 12 -56 28 -100 53 -150
23 -47 23 -49 3 -31 -11 11 -21 25 -21 33 0 7 -5 13 -11 13 -5 0 -8 4 -4 9 3
5 -2 16 -10 24 -8 9 -15 20 -15 25 0 5 -7 16 -17 23 -9 8 -14 10 -12 4 9 -22
60 -111 75 -132 10 -13 12 -23 6 -23 -6 0 -23 17 -37 37 -14 21 -25 33 -25 28
0 -6 14 -28 31 -50 29 -39 30 -40 9 -43 -12 -2 -31 5 -43 15 -19 16 -20 16 -8
1 19 -25 2 -22 -28 5 l-26 22 19 -22 c23 -27 11 -30 -18 -5 -20 16 -20 16 -7
0 12 -17 9 -18 -40 -19 -30 0 -62 -3 -71 -7 -9 -4 50 -7 132 -7 99 0 153 -4
160 -11 9 -9 4 -13 -19 -18 -17 -3 -44 -9 -61 -12 -18 -3 -30 -1 -30 5 0 6 -7
11 -16 11 -8 0 -13 -4 -9 -9 3 -5 2 -12 -3 -15 -12 -7 -193 14 -215 25 -10 5
-21 8 -25 5 -4 -2 -54 -7 -111 -10 -58 -4 -127 -12 -155 -17 -52 -10 -355 -12
-616 -4 -80 2 -345 7 -590 10 -245 3 -506 8 -581 11 l-136 4 -1 -45 c-1 -25 3
-45 8 -45 6 0 10 16 10 35 0 34 1 35 41 35 36 0 41 -2 36 -20 -3 -10 0 -21 7
-24 7 -3 7 -5 -1 -5 -18 -1 -16 -21 1 -21 15 0 26 21 26 51 0 21 8 23 30 9 10
-6 11 -10 3 -10 -7 0 -13 -5 -13 -11 0 -5 5 -7 10 -4 14 9 12 -2 -6 -30 -14
-21 -14 -23 0 -21 23 3 27 11 28 45 1 28 4 31 30 29 28 -2 30 -5 25 -35 -5
-27 -3 -33 13 -33 20 0 30 19 30 57 0 15 5 23 13 20 6 -2 12 -20 12 -40 0 -23
4 -37 12 -37 12 0 18 26 14 59 -2 7 2 10 9 6 7 -4 9 -18 6 -30 -3 -13 -2 -27
4 -30 6 -4 10 8 10 29 0 19 5 38 10 41 6 3 10 1 10 -5 0 -6 5 -8 10 -5 14 9
12 -8 -2 -24 -10 -11 -10 -13 0 -7 7 5 12 1 12 -9 0 -9 -4 -13 -10 -10 -5 3
-10 1 -10 -4 0 -6 14 -11 30 -11 21 0 30 5 30 16 0 8 4 13 9 9 5 -3 12 -1 15
4 3 5 -1 12 -10 15 -24 9 -6 26 26 26 29 0 30 -1 25 -41 -5 -35 -3 -40 11 -35
8 3 18 6 20 6 2 0 4 15 4 34 0 32 2 34 32 33 30 -2 33 -5 39 -42 7 -44 8 -44
15 0 7 41 14 45 14 7 0 -34 10 -45 34 -36 9 4 16 18 16 34 0 45 20 47 21 3 2
-34 2 -35 6 -8 7 45 23 55 24 15 l1 -35 10 33 c13 39 32 43 25 5 -8 -41 13
-53 87 -53 l66 0 0 34 c0 41 14 53 36 32 8 -9 11 -16 6 -16 -15 0 -8 -45 8
-51 21 -9 30 -1 29 24 -1 20 -2 20 -9 -3 l-8 -25 -1 24 c-1 24 23 50 47 51 6
0 12 -8 12 -17 0 -11 3 -14 8 -7 4 6 15 14 25 17 17 6 18 3 12 -33 l-7 -40 81
0 81 0 0 28 c0 36 13 54 32 47 12 -5 14 -14 8 -40 -8 -36 0 -45 41 -45 20 0
26 24 9 35 -6 4 -7 -1 -3 -11 4 -12 2 -15 -8 -12 -12 4 -24 68 -13 68 2 0 14
-10 26 -22 21 -21 22 -21 30 -2 6 14 7 10 5 -15 l-2 -34 79 2 c61 2 77 -1 74
-11 -4 -10 -50 -13 -216 -13 -116 0 -208 3 -206 7 8 13 -6 9 -20 -5 -7 -7 -11
-17 -9 -23 2 -7 -11 -12 -37 -12 -35 -1 -40 2 -35 18 4 14 0 18 -17 18 -13 0
-66 2 -118 5 -102 6 -117 3 -99 -19 10 -12 -3 -14 -87 -12 -76 1 -87 3 -49 7
68 8 34 22 -48 20 -41 -1 -52 -4 -32 -7 27 -5 26 -6 -15 -11 -25 -4 -100 -5
-168 -3 -110 3 -122 5 -118 20 5 15 -7 17 -124 18 -142 2 -180 -13 -47 -19
l82 -3 -82 -2 -83 -2 0 -50 0 -50 38 -1 c34 0 109 -4 307 -13 44 -2 122 -5
173 -5 82 -1 92 -3 92 -19 0 -10 -4 -22 -9 -27 -5 -6 -11 -23 -14 -40 -3 -20
-4 -14 -6 19 -1 48 -1 49 -19 30 -13 -14 -17 -32 -15 -64 2 -36 1 -40 -6 -20
-14 38 -13 88 2 93 6 2 0 4 -16 4 -15 0 -30 -4 -34 -10 -4 -6 -1 -7 7 -2 10 6
12 4 7 -9 -4 -10 -7 -30 -8 -44 -1 -21 -4 -17 -14 18 -8 28 -13 36 -14 23 -1
-13 -5 -23 -10 -23 -5 0 -12 -8 -14 -17 -3 -12 -5 -9 -6 8 -1 28 -26 46 -37
27 -4 -6 -3 -8 4 -5 7 5 10 -17 10 -65 0 -58 -2 -68 -10 -48 -5 14 -8 37 -5
53 2 15 0 27 -4 27 -4 0 -10 8 -12 18 -3 10 -5 5 -7 -13 -1 -16 -3 -39 -5 -50
-2 -10 0 -24 5 -30 5 -6 5 -17 0 -25 -11 -17 -24 26 -24 82 -1 21 -5 38 -10
38 -4 0 -6 -25 -3 -57 4 -39 1 -60 -8 -69 -10 -11 -15 -2 -24 44 -8 38 -8 58
-1 60 5 2 10 9 10 15 0 27 -29 -22 -37 -63 l-10 -45 -7 43 c-4 23 -11 42 -16
42 -4 0 -4 -18 0 -40 4 -22 4 -55 -1 -73 l-8 -32 3 33 c1 17 -1 32 -6 32 -5 0
-6 5 -2 12 4 6 3 8 -3 5 -6 -4 -14 4 -17 18 -4 15 -13 25 -24 25 -15 -1 -15
-2 -1 -13 8 -7 21 -32 27 -57 9 -37 9 -48 -3 -60 -10 -10 -15 -11 -15 -2 0 7
-7 12 -15 12 -8 0 -15 8 -15 18 0 15 2 15 11 2 9 -12 10 -12 5 3 -3 10 -6 23
-6 28 0 18 -29 -4 -33 -24 -2 -16 -5 -12 -11 16 -5 20 -12 37 -16 37 -4 0 -2
-21 6 -47 16 -52 10 -101 -8 -69 -6 10 -8 26 -5 37 3 10 2 19 -2 19 -5 0 -13
10 -20 23 -10 20 -11 19 -7 -13 3 -19 2 -29 -1 -22 -2 6 -9 10 -14 7 -5 -4 -2
-22 6 -42 19 -45 19 -53 -2 -28 -15 20 -15 20 -11 0 3 -11 -1 -26 -7 -32 -10
-9 -17 -2 -34 35 -17 40 -20 43 -21 20 0 -15 7 -34 16 -42 14 -15 14 -17 0
-32 -14 -14 -16 -93 -16 -724 l0 -708 23 5 c18 4 19 3 7 -7 -12 -10 -11 -11 8
-7 12 3 22 1 22 -5 0 -5 3 -7 8 -4 4 2 23 0 42 -5 29 -7 26 -8 -21 -4 -30 2
-63 7 -72 11 -11 4 -17 1 -17 -9 0 -8 6 -18 13 -20 9 -4 9 -6 0 -6 -7 -1 -13
-8 -13 -16 0 -10 10 -15 33 -15 24 0 28 3 17 10 -13 8 -12 10 3 10 9 0 17 -4
17 -9 0 -5 47 -10 104 -10 103 -1 104 -1 99 21 -3 14 -1 18 4 12 15 -20 51
-34 90 -34 28 0 34 3 23 10 -9 6 -10 10 -3 10 6 0 14 -4 17 -9 4 -5 174 -10
391 -10 308 -2 385 1 385 11 0 11 2 11 9 0 6 -10 38 -13 123 -11 l116 1 18 54
c19 58 25 62 44 39 10 -13 10 -23 -3 -55 l-15 -40 819 0 c450 0 819 1 819 3 0
1 -7 27 -15 57 -19 72 -19 75 10 88 29 13 27 16 50 -75 l19 -73 553 0 c529 0
553 1 562 19 6 10 7 22 3 26 -4 4 5 6 20 3 15 -3 25 -1 22 3 -3 5 4 9 15 9 11
0 23 5 26 10 7 12 -69 3 -97 -11 -24 -13 -48 -12 -28 1 11 7 5 10 -22 10 -21
0 -38 4 -38 9 0 14 50 20 84 10 17 -5 56 -7 86 -4 114 12 217 11 265 -2 28 -7
64 -10 80 -6 17 3 43 5 58 4 42 -2 107 18 107 33 0 8 9 16 20 19 11 3 20 1 20
-3 0 -5 13 -1 30 8 36 21 38 30 5 37 -14 3 -36 7 -50 10 -14 3 -25 12 -25 19
0 8 -6 17 -12 20 -7 3 10 5 37 4 28 0 58 3 67 7 9 4 22 4 28 0 5 -3 10 -2 10
4 0 10 -35 17 -165 31 -49 5 -112 12 -140 15 -37 5 -46 4 -35 -4 8 -6 26 -11
40 -11 24 -1 24 -1 6 -15 -11 -8 -31 -15 -45 -16 -14 0 -20 -3 -13 -6 27 -11
-23 -32 -73 -31 -43 1 -45 2 -15 6 l35 5 -30 7 c-29 7 -29 8 10 10 32 1 36 3
20 10 -11 5 -33 9 -50 10 l-30 2 35 8 c21 5 36 5 38 -1 2 -5 27 -8 55 -7 44 1
46 2 15 5 -21 2 -38 9 -38 14 0 5 -28 9 -65 8 -35 -1 -62 -6 -59 -10 8 -14
-16 -11 -30 3 -7 8 -37 13 -68 13 -31 0 -54 3 -52 6 6 10 -45 29 -61 23 -8 -4
-15 -2 -15 4 0 10 69 10 86 0 5 -4 41 -7 80 -6 46 0 62 3 49 8 -19 8 -19 9 3
9 13 1 21 5 18 9 -3 5 8 6 25 4 22 -3 29 0 29 13 0 14 -6 16 -32 11 -21 -3
-40 0 -51 8 -16 13 -14 14 24 9 30 -4 40 -3 35 5 -4 7 -1 12 8 12 8 0 22 3 31
7 14 5 16 2 10 -15 -4 -15 -2 -22 7 -22 10 0 9 -3 -2 -10 -19 -13 -8 -13 25 0
14 5 23 14 20 20 -3 5 -2 10 4 10 5 0 13 -5 16 -10 4 -6 14 -10 23 -9 34 3
105 -1 100 -6 -3 -3 -33 -6 -68 -6 -34 -1 -57 -5 -50 -9 10 -6 9 -9 -1 -13
-15 -5 -1 -4 99 8 39 5 59 11 51 16 -20 12 -6 20 43 23 47 3 76 15 104 43 16
16 14 18 -32 32 -27 8 -85 15 -129 15 -44 1 -82 4 -85 7 -3 4 -67 9 -143 13
-76 4 -170 12 -210 18 -40 6 -110 12 -157 14 -140 4 -148 6 -142 26 6 26 28
41 60 40 15 0 31 2 35 5 5 3 152 5 328 5 263 1 319 3 319 14 0 8 -11 14 -27
15 -16 1 -35 2 -43 3 -8 2 -45 3 -81 4 -51 2 -68 6 -73 18 -5 14 6 15 94 12
71 -2 103 -7 109 -17 7 -11 9 -11 14 0 4 10 6 10 6 2 1 -7 6 -13 12 -13 5 0 7
5 4 10 -8 13 18 23 42 17 15 -3 14 -6 -7 -15 -21 -9 -11 -11 55 -10 44 1 62 3
41 5 -28 3 -36 7 -26 13 11 6 7 10 -13 15 -25 7 -38 25 -17 25 5 0 7 7 4 15
-4 10 0 15 11 15 9 0 13 -5 10 -10 -3 -6 1 -10 9 -10 13 0 16 16 16 99 0 85
-2 100 -17 105 -10 3 -25 9 -33 12 -8 3 -5 -1 8 -11 23 -17 29 -58 12 -85 -7
-12 -18 -8 -64 24 -61 42 -67 52 -33 59 19 4 18 4 -5 6 -28 1 -36 18 -29 61 2
8 4 29 6 45 2 17 7 40 11 52 5 20 3 23 -20 23 -21 0 -26 -5 -26 -25 0 -16 -6
-25 -15 -25 -11 0 -14 7 -9 25 6 22 3 25 -22 24 -17 -1 -22 -3 -12 -6 13 -3
16 -9 9 -21 -5 -9 -8 -45 -7 -80 1 -59 0 -62 -23 -62 -19 0 -21 3 -11 15 6 8
9 19 5 25 -11 17 -23 11 -27 -12 -2 -13 -10 -23 -18 -23 -8 0 -14 6 -12 13 1
7 -7 26 -18 42 -11 15 -20 31 -20 34 0 3 23 6 50 6 38 0 50 4 50 15 0 8 -6 15
-12 16 -7 0 -4 4 7 9 15 6 8 9 -27 9 -38 1 -48 -2 -48 -15 0 -12 -6 -15 -22
-10 -13 3 -53 6 -90 6 -42 0 -68 4 -68 11 0 6 9 8 23 3 12 -3 18 -3 14 2 -11
11 -68 14 -61 3 3 -5 -18 -9 -46 -9 -32 0 -49 -4 -45 -10 4 -6 11 -8 16 -5 5
4 9 -3 9 -14 0 -12 -3 -21 -8 -21 -11 0 -55 31 -70 49 -9 11 -38 18 -105 22
-88 6 -167 30 -167 51 0 5 -5 6 -12 2 -8 -5 -9 -2 -5 10 4 10 3 15 -3 11 -6
-3 -10 1 -10 9 0 13 13 16 73 16 87 0 149 -9 141 -21 -11 -19 29 -22 42 -4 13
17 27 18 296 7 156 -6 290 -11 298 -11 8 0 43 -3 78 -7 l62 -7 2 -43 c1 -24 2
-56 2 -71 1 -16 5 -31 11 -35 5 -4 8 -66 6 -147 l-2 -141 25 0 c26 0 26 1 26
81 0 66 -3 84 -17 95 -17 13 -17 14 0 8 13 -5 17 -1 17 19 0 14 -8 30 -17 36
-17 9 -17 11 2 26 14 11 16 18 8 21 -15 7 -17 34 -3 34 6 0 9 19 9 43 -1 23
-4 33 -6 22 -3 -11 -11 -28 -18 -38 -11 -15 -13 -6 -12 60 1 43 3 68 5 56 5
-36 22 -27 22 12 0 29 -4 36 -26 41 -16 4 -29 2 -33 -5 -4 -6 -15 -9 -24 -5
-10 4 -17 1 -17 -6 0 -14 -50 15 -63 37 -4 7 -16 13 -25 13 -15 -1 -15 -2 2
-15 11 -8 14 -15 7 -15 -7 0 -10 -4 -7 -9 3 -5 -1 -11 -9 -15 -11 -4 -15 3
-16 27 l-2 32 -6 -35 c-4 -20 -2 -38 4 -42 6 -5 2 -8 -8 -8 -10 0 -34 16 -53
36 l-36 35 -25 -23 c-22 -21 -26 -21 -36 -7 -9 12 -26 15 -74 12 -50 -3 -63
-1 -63 11 0 8 -10 16 -22 18 -26 4 -68 -11 -68 -24 0 -4 -11 -8 -25 -8 -14 0
-25 6 -25 13 0 9 -14 14 -41 15 -24 1 -38 -2 -34 -8 3 -6 3 -10 0 -10 -13 0
-50 23 -58 36 -11 19 -47 18 -47 -1 0 -8 4 -15 9 -15 5 0 8 -11 7 -25 0 -14
-6 -25 -13 -25 -7 0 -10 7 -7 15 3 8 -1 22 -10 30 -9 9 -16 14 -16 10 0 -3
-10 1 -22 9 -29 21 -40 20 -69 -5 l-24 -21 -6 29 c-6 26 -10 23 -13 -9 -1 -14
-16 -28 -28 -28 -16 0 -8 28 9 34 15 6 15 9 3 16 -9 5 -14 26 -15 52 0 30 -4
43 -14 43 -8 0 -16 -6 -18 -12 -3 -7 0 -13 7 -13 7 0 8 -6 0 -19 -5 -11 -7
-26 -4 -35 3 -8 -3 -19 -15 -25 -28 -15 -31 -14 -31 12 0 18 -2 19 -10 7 -8
-12 -10 -8 -11 15 -1 17 -3 23 -6 14 -3 -12 -15 -15 -52 -13 -58 3 -91 18 -91
42 0 14 -2 14 -9 3 -5 -8 -15 -12 -23 -9 -7 3 -19 -1 -26 -8 -10 -11 -8 -15
13 -20 20 -5 25 -12 25 -39 0 -28 4 -33 31 -39 17 -3 51 -6 75 -6 23 0 46 -5
50 -11 5 -9 -13 -10 -67 -5 -41 4 -82 8 -92 9 -9 1 -20 9 -23 19 -3 11 -15 18
-30 18 -20 0 -24 5 -25 33 -2 28 -3 27 -12 -15 -9 -43 -13 -48 -38 -48 -21 0
-27 4 -23 15 4 8 10 15 14 15 5 0 6 10 3 23 -4 18 -3 19 6 7 7 -9 11 -10 11
-3 0 6 -5 15 -11 18 -6 4 -9 27 -7 51 2 24 -1 45 -7 46 -5 2 -11 -15 -13 -37
-4 -51 -35 -121 -40 -89 -1 11 -12 27 -24 35 -12 8 -30 22 -41 33 -19 18 -19
19 29 39 27 11 51 22 53 24 3 2 -9 18 -25 36 -20 23 -17 21 8 -4 21 -21 40
-34 43 -29 3 5 37 19 75 32 67 21 71 24 81 61 7 25 7 49 0 70 -5 18 -12 55
-15 82 l-5 50 12 -42 c15 -53 27 -65 27 -27 0 16 3 40 5 54 3 14 3 19 -1 13
-9 -20 -24 -15 -17 5 3 9 3 14 -2 10 -4 -4 -15 -2 -23 5 -13 10 -14 9 -8 -1 5
-9 0 -22 -15 -38 -21 -22 -23 -22 -35 -6 -7 9 -14 12 -14 6 0 -7 -9 -14 -19
-17 -17 -4 -18 -9 -10 -43 16 -70 8 -81 -10 -14 -14 53 -19 61 -25 42 -4 -12
-12 -20 -17 -17 -5 4 -9 -2 -10 -12 0 -15 -2 -15 -11 4 l-10 21 -24 -25 c-19
-20 -24 -22 -24 -9 0 21 -9 20 -26 -1 -13 -17 -13 -17 -14 0 0 11 -22 28 -65
49 -52 26 -62 34 -48 40 16 7 15 8 -2 4 -11 -2 -27 -5 -35 -7 -9 -3 -15 4 -16
19 -1 12 3 22 7 22 5 0 9 8 9 19 0 13 9 20 33 24 17 2 36 2 41 -1 5 -3 81 -6
170 -7 88 -2 166 -4 171 -5 6 -1 24 -2 42 -1 30 1 31 3 39 54 5 28 8 56 9 60
0 4 -94 10 -209 12 -115 3 -211 6 -213 9 -2 2 -20 0 -39 -4 -32 -8 -35 -6 -31
11 3 10 1 19 -4 19 -5 0 -9 -9 -9 -21 0 -11 -5 -29 -10 -39 -6 -11 -13 -83
-16 -162 -4 -79 -8 -145 -10 -147 -3 -3 -9 0 -15 6 -11 11 -6 102 16 318 2 22
4 55 4 73 1 19 5 31 11 27 6 -3 10 -1 10 4 0 6 -4 11 -10 11 -5 0 -10 8 -10
18 0 13 2 14 9 4 6 -10 10 -8 16 10 7 19 9 15 12 -24 3 -37 8 -48 21 -48 15 0
15 -2 2 -10 -13 -8 -12 -10 3 -10 9 0 17 5 17 10 0 13 170 13 190 0 10 -7 -8
-10 -60 -10 -81 0 -150 -9 -150 -19 0 -4 384 -14 503 -12 9 0 17 -4 17 -10 0
-5 -6 -9 -14 -9 -9 0 -16 -18 -21 -56 -8 -68 0 -77 65 -69 28 4 60 0 85 -9 22
-8 32 -15 23 -15 -14 -1 -16 -7 -11 -33 7 -38 13 -49 13 -25 0 30 18 18 23
-15 4 -23 0 -37 -11 -45 -27 -21 -31 -16 -38 56 -6 67 -7 68 -30 57 -13 -6
-24 -17 -24 -25 0 -10 3 -11 14 -2 17 15 23 6 32 -46 5 -35 3 -43 -14 -52 -11
-6 -23 -11 -25 -11 -3 0 -8 32 -12 70 -5 49 -11 70 -21 70 -7 0 -11 -6 -8 -14
8 -21 -12 -28 -29 -11 -17 16 -28 20 -25 8 1 -5 -2 -17 -8 -28 -6 -11 -12 -42
-13 -70 -2 -27 -10 -66 -18 -85 -21 -50 -24 -72 -12 -86 7 -9 7 -19 -1 -34 -6
-12 -9 -24 -7 -27 11 -10 27 38 21 61 -5 22 -2 26 38 36 23 6 57 15 73 20 99
29 420 70 556 70 110 0 111 -1 110 -90 l0 -45 13 40 c8 22 17 52 20 66 5 24
11 27 48 27 53 1 376 -35 389 -43 5 -4 9 59 9 159 0 141 -2 166 -15 166 -18 0
-20 26 -2 33 10 4 10 6 0 6 -19 1 -17 86 2 104 30 31 -5 36 -225 36 -118 0
-336 3 -485 7 -412 9 -445 10 -445 2 0 -5 -4 -8 -10 -8 -5 0 -11 19 -11 43 -1
23 -3 33 -6 22 -15 -74 -4 -68 -101 -59 -48 4 -149 6 -226 5 -114 -3 -137 -1
-130 11 6 10 5 11 -7 2 -19 -15 -47 -14 -53 3 -3 7 -12 13 -20 13 -10 0 -13 6
-9 16 5 13 7 13 14 2 6 -9 9 -9 9 -1 0 6 8 14 18 16 13 4 12 5 -4 6 -27 1 -32
15 -26 63 l4 37 92 3 91 3 -93 9 -94 9 6 46 c13 110 18 186 11 179 -6 -6 -34
-180 -35 -215 0 -9 -26 -13 -92 -14 l-93 -2 92 -9 91 -10 -4 -31 c-3 -18 -6
-43 -9 -57 -2 -14 -4 -38 -4 -55 -1 -22 -4 -26 -13 -17 -17 17 -49 15 -64 -5
-7 -10 -14 -13 -14 -7 0 9 -32 14 -112 18 -9 0 -14 5 -10 11 9 14 9 174 0 168
-5 -2 -8 -19 -8 -38 0 -37 -14 -54 -24 -29 -3 8 -3 55 1 104 11 157 -29 282
-124 389 -12 14 -20 28 -17 33 10 16 30 228 21 228 -2 0 -10 -52 -17 -115z
m-253 -358 c-32 -26 -48 -80 -42 -147 l4 -45 -11 51 c-13 65 6 133 43 151 36
19 37 16 6 -10z m4 -40 c-10 -9 -11 -8 -5 6 3 10 9 15 12 12 3 -3 0 -11 -7
-18z m-14 -49 c-3 -8 -6 -5 -6 6 -1 11 2 17 5 13 3 -3 4 -12 1 -19z m-2157
-288 c0 -5 -5 -10 -11 -10 -5 0 -7 5 -4 10 3 6 8 10 11 10 2 0 4 -4 4 -10z
m1710 1 c0 -20 -89 -38 -124 -25 -33 13 -14 23 47 27 34 2 65 4 70 5 4 1 7 -2
7 -7z m-1613 -33 c-3 -7 -5 -2 -5 12 0 14 2 19 5 13 2 -7 2 -19 0 -25z m145 2
c-2 -16 -6 -30 -8 -30 -2 0 -4 14 -4 30 0 17 4 30 8 30 5 0 7 -13 4 -30z m188
20 c0 -5 -5 -10 -11 -10 -5 0 -7 5 -4 10 3 6 8 10 11 10 2 0 4 -4 4 -10z m30
0 c0 -5 -5 -10 -11 -10 -5 0 -7 5 -4 10 3 6 8 10 11 10 2 0 4 -4 4 -10z m30 0
c0 -5 -4 -10 -10 -10 -5 0 -10 5 -10 10 0 6 5 10 10 10 6 0 10 -4 10 -10z
m921 -7 c13 -17 13 -17 -6 -3 -11 8 -22 16 -24 17 -2 2 0 3 6 3 6 0 17 -8 24
-17z m-671 -23 c0 -16 -4 -30 -9 -30 -4 0 -8 13 -7 30 1 39 16 39 16 0z m62 5
c-2 -14 -8 -25 -12 -25 -4 0 -5 11 -2 25 2 14 8 25 12 25 4 0 5 -11 2 -25z
m192 -2 c-10 -40 -14 -41 -14 -5 0 18 5 32 10 32 6 0 8 -11 4 -27z m30 0 c-10
-40 -14 -41 -14 -5 0 18 5 32 10 32 6 0 8 -11 4 -27z m34 -3 c0 -16 -4 -30 -9
-30 -5 0 -9 14 -9 30 0 17 4 30 8 30 5 0 9 -13 10 -30z m32 0 c0 -16 -5 -30
-10 -30 -6 0 -9 12 -6 28 5 33 5 32 11 32 3 0 5 -13 5 -30z m30 -6 c0 -19 -4
-33 -9 -29 -5 3 -8 18 -6 33 4 34 4 32 10 32 3 0 5 -16 5 -36z m36 20 c-3 -9
-6 -25 -6 -35 0 -11 -4 -18 -8 -15 -12 7 -2 66 10 66 6 0 7 -7 4 -16z m82 -39
c-3 -44 -5 -50 -23 -47 -27 5 -27 5 -20 54 5 35 11 44 26 44 18 0 20 -6 17
-51z m82 20 c0 -19 -4 -35 -10 -35 -5 0 -8 15 -6 33 6 39 5 37 11 37 3 0 5
-16 5 -35z m-1324 -2 c-10 -10 -19 5 -10 18 6 11 8 11 12 0 2 -7 1 -15 -2 -18z
m1356 -3 c-2 -16 -7 -30 -11 -30 -4 0 -6 14 -3 30 2 17 7 30 11 30 4 0 6 -13
3 -30z m782 -13 c-5 -13 -10 -14 -25 -6 -22 11 -25 35 -6 42 18 7 39 -17 31
-36z m-1708 6 c-10 -10 -19 5 -10 18 6 11 8 11 12 0 2 -7 1 -15 -2 -18z m51 5
c-3 -8 -6 -5 -6 6 -1 11 2 17 5 13 3 -3 4 -12 1 -19z m293 1 c0 -11 -4 -18
-10 -14 -5 3 -7 12 -3 20 7 21 13 19 13 -6z m677 -1 c-3 -8 -6 -5 -6 6 -1 11
2 17 5 13 3 -3 4 -12 1 -19z m-987 2 c0 -5 -4 -10 -10 -10 -5 0 -10 5 -10 10
0 6 5 10 10 10 6 0 10 -4 10 -10z m717 -12 c-3 -8 -6 -5 -6 6 -1 11 2 17 5 13
3 -3 4 -12 1 -19z m113 1 c0 -11 -4 -18 -10 -14 -5 3 -7 12 -3 20 7 21 13 19
13 -6z m125 4 c37 -18 47 -39 61 -133 13 -83 63 -150 114 -150 7 0 23 -9 37
-20 14 -11 40 -22 59 -26 19 -3 36 -10 39 -14 5 -8 -64 -80 -76 -80 -5 0 -16
-11 -25 -24 -12 -19 -13 -29 -5 -43 9 -16 10 -16 11 5 0 25 44 72 68 72 12 0
12 -3 -3 -20 -10 -11 -14 -20 -9 -20 31 1 56 17 75 47 12 19 35 40 50 45 20 7
29 17 29 32 0 12 7 32 16 45 10 13 37 63 61 112 32 65 51 93 73 104 17 9 30
12 31 8 1 -5 2 -44 3 -88 1 -44 4 -84 8 -90 3 -5 2 -35 -4 -67 -8 -48 -14 -58
-38 -68 -23 -9 -34 -9 -58 4 -40 21 -69 22 -53 2 6 -7 30 -16 53 -19 38 -5 58
-19 58 -42 0 -5 -5 -3 -10 5 -6 10 -10 11 -10 3 0 -7 -7 -13 -15 -13 -18 0
-19 -9 -1 -33 10 -13 21 -16 42 -12 28 7 28 6 -6 -15 -38 -25 -33 -24 -175
-15 -54 3 -102 10 -105 16 -12 19 -40 -3 -40 -31 0 -19 6 -29 20 -33 11 -3 18
-2 15 3 -3 4 2 13 9 20 17 13 209 5 264 -12 33 -10 44 -28 17 -28 -11 0 -12
-5 -5 -26 13 -33 13 -33 -12 -28 -13 2 -17 2 -10 -2 17 -8 15 -24 -3 -24 -8 0
-15 7 -15 15 0 8 -4 15 -10 15 -5 0 -10 -13 -10 -30 0 -31 -5 -28 94 -46 27
-5 29 -10 16 -34 -9 -16 -9 -25 1 -36 6 -8 10 -14 8 -15 -2 0 -15 -3 -28 -5
-14 -2 -33 -11 -42 -20 -9 -8 -23 -14 -30 -12 -9 2 -13 -5 -11 -20 2 -21 1
-22 -14 -8 -20 21 -25 20 -17 -1 6 -15 4 -16 -9 -6 -8 7 -18 10 -21 6 -4 -3
-7 -2 -7 3 0 5 -9 10 -20 11 -11 1 -20 -4 -20 -13 0 -8 -4 -14 -10 -14 -5 0
-7 7 -4 15 8 19 -1 19 -30 0 -20 -14 -26 -14 -38 -2 -12 12 -51 26 -86 29 -6
1 -11 7 -10 14 2 7 -14 24 -35 38 -44 30 -48 31 -41 11 4 -8 9 -13 13 -10 4 2
13 -4 21 -15 7 -10 20 -16 28 -12 10 4 13 1 8 -7 -11 -17 22 -51 48 -51 29 0
50 -15 42 -29 -4 -6 -12 -9 -18 -5 -5 3 -2 -8 6 -25 9 -17 19 -31 22 -31 2 0
0 9 -6 20 -6 11 -9 20 -6 20 3 0 20 -26 39 -57 35 -60 137 -225 143 -232 2 -2
13 4 24 14 20 18 20 17 20 -13 0 -17 -4 -34 -10 -37 -16 -10 -12 -45 5 -45 8
0 15 9 15 20 0 11 5 20 10 20 6 0 10 -11 10 -25 0 -14 -4 -25 -10 -25 -5 0 -9
-17 -9 -37 l2 -38 7 35 c7 34 15 19 12 -22 -1 -10 3 -18 8 -18 6 0 10 8 11 18
0 13 2 12 9 -6 5 -12 7 -29 4 -37 -4 -8 -1 -21 5 -29 15 -18 5 -73 -19 -104
l-20 -25 0 37 c0 25 -4 36 -15 36 -9 0 -15 -9 -15 -22 0 -48 -11 -6 -14 51 -2
53 0 61 16 61 10 0 18 4 18 8 0 5 -13 7 -30 4 -24 -3 -30 -9 -30 -30 0 -13 -8
-31 -17 -39 -17 -13 -16 -14 5 -10 22 5 22 4 22 -116 l0 -121 -27 27 c-16 14
-44 33 -65 41 -30 13 -39 24 -53 65 -9 27 -19 51 -23 53 -14 6 -43 69 -36 79
4 6 -11 27 -33 48 -22 20 -42 47 -46 61 -11 49 -39 115 -56 135 -10 11 -37 49
-60 85 -134 207 -147 319 -51 417 30 30 31 33 17 60 -9 16 -20 55 -26 87 -6
33 -20 74 -30 92 -12 20 -16 35 -10 41 7 7 1 16 -15 27 -25 16 -25 16 -16 -9
13 -33 2 -38 -75 -30 -48 6 -65 11 -65 22 0 12 8 14 38 8 65 -14 77 -12 80 13
2 13 -2 30 -9 39 -12 13 -15 11 -25 -18 -7 -19 -13 -29 -13 -22 -1 6 4 24 9
38 7 18 7 33 -1 48 -11 19 -13 16 -32 -34 -26 -70 -33 -51 -8 21 17 48 18 56
4 63 -8 5 -17 6 -20 3 -4 -3 -1 -6 5 -6 20 0 13 -17 -8 -23 -17 -4 -20 0 -20
25 0 29 1 30 40 26 36 -3 40 -1 50 26 16 47 13 86 -7 87 -15 0 -15 2 2 9 17 6
12 10 -28 20 -65 17 -68 30 -8 30 46 0 51 2 57 25 7 30 4 29 49 8z m152 -9
c-3 -3 -20 -4 -39 -2 l-33 4 35 10 c31 9 52 2 37 -12z m93 15 c0 -8 5 -8 15 1
12 10 15 10 15 0 0 -7 7 -10 15 -6 18 7 20 -5 3 -22 -10 -10 -10 -15 2 -23 12
-8 9 -9 -10 -5 -14 2 -42 8 -62 11 -31 6 -38 11 -38 31 0 20 5 24 30 24 17 0
30 -5 30 -11z m600 1 c0 -5 12 -9 28 -8 36 2 83 -9 96 -22 15 -15 26 -12 26 8
0 13 2 14 9 3 5 -7 27 -14 50 -15 42 -1 45 -5 35 -43 -5 -20 -8 -20 -21 -8
-22 22 -32 18 -31 -14 2 -49 -9 -53 -60 -26 -26 14 -55 25 -65 25 -10 0 -20 7
-23 15 -4 8 -15 15 -26 15 -11 0 -16 4 -12 11 4 8 0 9 -15 4 -22 -7 -30 9 -10
21 6 3 9 15 6 25 -3 11 -1 19 4 19 5 0 9 -4 9 -10z m352 -20 c-5 -33 -25 -36
-30 -4 -3 16 -1 16 7 4 9 -13 11 -13 11 2 0 9 -6 19 -12 21 -7 3 -4 6 8 6 17
1 20 -4 16 -29z m68 13 c0 -10 -5 -25 -11 -33 -8 -12 -9 -9 -5 13 4 15 2 27
-3 27 -5 0 -11 -10 -13 -22 -2 -12 -8 -23 -14 -25 -7 -2 -9 8 -6 27 3 24 9 30
28 30 16 0 24 -6 24 -17z m30 -13 c0 -16 -4 -30 -10 -30 -5 0 -10 14 -10 30 0
17 5 30 10 30 6 0 10 -13 10 -30z m30 20 c0 -5 -5 -10 -11 -10 -5 0 -7 5 -4
10 3 6 8 10 11 10 2 0 4 -4 4 -10z m50 -30 c0 -29 -4 -40 -15 -40 -8 0 -15 3
-16 8 -8 56 -6 72 12 72 15 0 19 -7 19 -40z m120 30 c0 -5 -5 -10 -11 -10 -5
0 -7 5 -4 10 3 6 8 10 11 10 2 0 4 -4 4 -10z m32 -30 c-6 -40 -21 -39 -16 3 1
17 3 33 3 35 1 2 5 1 9 -2 5 -3 7 -19 4 -36z m34 18 c-3 -13 -6 -29 -6 -36 0
-7 -4 -11 -8 -8 -12 7 -2 66 10 66 6 0 8 -10 4 -22z m51 -11 c-1 12 3 21 8 20
6 -1 9 -7 7 -13 -1 -7 2 -15 8 -19 6 -4 10 4 10 19 0 14 4 26 8 26 4 0 6 -15
4 -33 -4 -32 -6 -34 -43 -34 -37 0 -38 1 -34 31 2 17 4 33 5 36 0 3 7 -8 15
-25 12 -24 14 -25 12 -8z m111 -19 c-2 -41 -7 -54 -20 -56 -15 -3 -18 4 -18
46 0 51 5 62 27 62 11 0 13 -13 11 -52z m85 6 c-2 -35 -2 -37 9 -16 7 15 20
22 40 22 31 0 36 -11 13 -30 -12 -10 -15 -10 -15 4 0 23 -17 20 -23 -4 -5 -18
0 -20 49 -20 36 0 54 -4 54 -12 0 -9 3 -8 10 2 7 12 12 12 21 3 7 -7 10 -15 8
-18 -11 -10 -228 8 -222 19 4 6 7 20 8 31 4 63 5 65 27 61 20 -2 22 -8 21 -42z
m37 26 c0 -5 -4 -10 -10 -10 -5 0 -10 5 -10 10 0 6 5 10 10 10 6 0 10 -4 10
-10z m100 2 c0 -5 -20 -10 -45 -10 -25 -1 -45 2 -45 8 0 5 20 10 45 10 25 0
45 -4 45 -8z m100 -2 c0 -5 -9 -10 -20 -10 -11 0 -20 5 -20 10 0 6 9 10 20 10
11 0 20 -4 20 -10z m80 -25 c0 -19 -5 -35 -11 -35 -6 0 -8 13 -5 33 5 38 5 37
11 37 3 0 5 -16 5 -35z m73 -27 c-2 -5 -8 -8 -14 -8 -11 0 -12 53 -1 64 7 8
21 -44 15 -56z m97 34 c0 -15 -5 -33 -12 -40 -7 -7 -9 -12 -4 -12 4 0 1 -7 -8
-15 -15 -16 -99 -20 -168 -9 -64 11 -31 24 61 24 l87 0 -2 32 c-3 40 2 48 27
48 14 0 19 -7 19 -28z m82 -21 c-2 -23 -9 -41 -14 -41 -6 0 -7 -7 -4 -16 5
-12 1 -14 -15 -9 -15 5 -19 4 -15 -4 4 -6 1 -11 -7 -11 -11 0 -13 11 -11 48 5
63 9 70 36 74 33 6 34 4 30 -41z m96 7 l-3 -43 60 0 c46 0 59 3 57 14 -5 25 9
72 21 68 13 -4 11 -66 -3 -101 -7 -18 -14 -21 -54 -18 -25 2 -44 7 -41 12 5 7
-32 5 -92 -5 -42 -8 -44 13 -3 22 30 5 35 19 33 81 -1 6 6 12 14 12 11 0 14
-10 11 -42z m-1019 -8 c0 -10 -3 -8 -9 5 -12 27 -12 43 0 25 5 -8 9 -22 9 -30z
m703 10 c-2 -16 -9 -30 -14 -30 -6 0 -7 7 -4 16 3 9 6 22 6 30 0 8 4 14 8 14
5 0 7 -13 4 -30z m74 14 c-3 -9 -6 -22 -6 -30 0 -8 -3 -14 -7 -14 -5 0 -8 14
-8 30 0 19 5 30 14 30 8 0 11 -6 7 -16z m465 -64 c5 0 9 11 9 25 0 14 3 25 6
25 11 0 33 -34 34 -51 0 -12 7 -15 26 -11 23 4 25 8 20 33 -9 45 2 59 44 59
22 0 41 -3 43 -8 8 -12 -5 -62 -14 -56 -5 3 -9 0 -9 -7 0 -7 -7 -4 -15 7 -14
19 -14 18 -15 -3 0 -20 5 -23 38 -23 l37 0 0 43 0 42 63 3 62 3 0 -30 c0 -16
-5 -33 -10 -36 -6 -4 -8 -11 -5 -16 4 -5 -1 -9 -9 -9 -9 0 -16 6 -17 13 0 10
-2 10 -6 0 -6 -16 -30 -17 -35 -1 -3 7 -7 6 -11 -5 -5 -14 0 -17 38 -17 25 0
45 -5 45 -10 0 -7 -44 -10 -120 -9 -83 1 -120 4 -120 12 0 7 -4 6 -9 -2 -7
-11 -21 -12 -69 -4 -52 8 -59 7 -57 -6 1 -13 26 -17 141 -24 76 -4 154 -5 172
-3 19 3 32 0 32 -6 0 -8 -58 -8 -197 -3 -109 5 -210 9 -225 8 -15 0 -25 4 -22
8 3 5 22 9 43 9 44 0 55 8 40 27 -9 10 -6 13 13 13 21 0 25 5 26 35 2 54 17
67 20 18 2 -24 7 -43 13 -43z m48 71 c7 -5 9 -11 5 -14 -5 -3 -15 1 -22 9 -14
16 -5 18 17 5z m360 -61 c-6 -30 -11 -62 -13 -70 -2 -10 -17 -16 -42 -18 l-39
-2 35 17 c31 16 33 18 13 21 -27 4 -30 30 -8 72 16 31 46 53 57 42 3 -4 2 -32
-3 -62z m-1775 45 c-4 -8 -10 -15 -15 -15 -5 0 -9 7 -9 15 0 8 7 15 15 15 9 0
12 -6 9 -15z m159 0 c4 -8 2 -17 -3 -20 -6 -4 -10 3 -10 14 0 25 6 27 13 6z
m417 -10 c0 -8 -4 -15 -10 -15 -5 0 -7 7 -4 15 4 8 8 15 10 15 2 0 4 -7 4 -15z
m27 -7 c-3 -8 -6 -5 -6 6 -1 11 2 17 5 13 3 -3 4 -12 1 -19z m43 7 c0 -8 -4
-15 -10 -15 -5 0 -7 7 -4 15 4 8 8 15 10 15 2 0 4 -7 4 -15z m60 -20 c0 -25
-4 -35 -16 -35 -9 0 -12 -5 -8 -12 5 -9 3 -9 -9 1 -12 9 -15 21 -11 40 9 36
13 41 30 41 9 0 14 -11 14 -35z m400 16 c0 -11 -4 -23 -10 -26 -6 -4 -10 5
-10 19 0 14 5 26 10 26 6 0 10 -9 10 -19z m-2207 -26 c63 -20 84 -43 68 -74
-6 -10 -8 -20 -6 -23 3 -3 -1 -5 -9 -5 -8 0 -12 6 -9 13 2 6 0 15 -6 19 -10 5
-16 -14 -12 -38 1 -4 -5 -10 -13 -13 -11 -4 -14 -15 -10 -37 l5 -32 -16 25
-16 25 6 -27 c4 -21 2 -28 -10 -28 -35 0 -75 31 -93 72 -18 42 -18 43 5 90 13
26 26 48 29 48 3 0 2 -4 -1 -10 -3 -5 1 -10 10 -10 13 0 14 4 4 23 -10 18 -10
20 2 12 8 -6 40 -19 72 -30z m207 27 c0 -4 -9 -8 -19 -8 -11 0 -17 4 -15 8 3
4 12 8 20 8 8 0 14 -4 14 -8z m-2050 -14 c0 -10 -19 -9 -45 2 -16 7 -14 9 13
7 17 -1 32 -5 32 -9z m2332 -2 c3 2 8 -2 11 -10 4 -10 1 -13 -9 -9 -7 3 -14 1
-14 -5 0 -6 6 -12 12 -14 8 -3 3 -10 -11 -17 -23 -13 -23 -12 -17 13 4 15 2
26 -3 26 -6 0 -8 7 -5 15 5 11 10 13 19 5 6 -5 14 -7 17 -4z m496 -15 c3 -8
-4 -12 -19 -9 -29 4 -36 25 -7 23 12 -1 24 -7 26 -14z m-2068 2 c0 -5 -33 -7
-72 -5 -125 4 -137 9 -30 10 56 1 102 -1 102 -5z m155 -3 c4 -6 -6 -10 -22 -9
-25 0 -26 1 -8 9 11 5 21 9 22 9 1 1 5 -3 8 -9z m218 -7 c-7 -2 -21 -2 -30 0
-10 3 -4 5 12 5 17 0 24 -2 18 -5z m1764 1 c-3 -3 -12 -4 -19 -1 -8 3 -5 6 6
6 11 1 17 -2 13 -5z m40 0 c-3 -3 -12 -4 -19 -1 -8 3 -5 6 6 6 11 1 17 -2 13
-5z m-1479 -11 c-26 -2 -71 -2 -100 0 -29 2 -8 3 47 3 55 0 79 -1 53 -3z m891
-67 c-9 -8 -10 -7 -5 7 3 10 7 28 7 40 2 16 3 14 6 -7 3 -16 -1 -34 -8 -40z
m156 55 c20 -4 26 -9 18 -14 -7 -5 -13 -13 -13 -18 0 -6 4 -8 9 -5 5 3 11 -4
14 -16 4 -16 3 -18 -6 -9 -14 14 -30 14 -21 -1 4 -7 3 -8 -5 -4 -6 4 -9 12 -6
17 4 5 1 9 -4 9 -6 0 -11 -7 -11 -15 0 -19 -24 -19 -40 0 -7 8 -16 12 -21 9
-10 -6 -12 39 -2 49 8 8 46 7 88 -2z m-475 -10 c-14 -3 -26 -14 -28 -25 -2
-12 1 -16 9 -10 8 4 10 3 5 -5 -4 -6 -12 -8 -18 -5 -6 4 -15 0 -20 -7 -7 -10
-8 -9 -3 6 4 11 10 28 12 38 4 12 15 17 37 16 29 -1 29 -2 6 -8z m357 -28 c-3
-10 -5 -4 -5 12 0 17 2 24 5 18 2 -7 2 -21 0 -30z m-431 -21 c-12 -11 -18 7
-10 30 l8 23 4 -23 c2 -13 1 -26 -2 -30z m619 38 c3 -6 -1 -13 -10 -16 -19 -8
-30 0 -20 15 8 14 22 14 30 1z m248 3 c-7 -2 -21 -2 -30 0 -10 3 -4 5 12 5 17
0 24 -2 18 -5z m787 -3 c0 -5 -4 -10 -10 -10 -5 0 -10 5 -10 10 0 6 5 10 10
10 6 0 10 -4 10 -10z m40 -10 c0 -5 -7 -10 -15 -10 -8 0 -15 5 -15 10 0 6 7
10 15 10 8 0 15 -4 15 -10z m230 0 c0 -6 -40 -10 -100 -10 -60 0 -100 4 -100
10 0 6 40 10 100 10 60 0 100 -4 100 -10z m-908 -12 c-9 -9 -15 -9 -24 0 -9 9
-7 12 12 12 19 0 21 -3 12 -12z m1136 -3 c9 -9 -139 -3 -167 6 -17 6 8 7 68 4
52 -2 96 -7 99 -10z m-911 -1 c-3 -3 -12 -4 -19 -1 -8 3 -5 6 6 6 11 1 17 -2
13 -5z m110 0 c-3 -3 -12 -4 -19 -1 -8 3 -5 6 6 6 11 1 17 -2 13 -5z m-730
-20 c-3 -3 -12 -4 -19 -1 -8 3 -5 6 6 6 11 1 17 -2 13 -5z m-2102 -14 c3 -6 0
-13 -9 -16 -11 -4 -14 -18 -11 -57 2 -36 1 -44 -5 -27 -14 45 -12 110 4 110 8
0 18 -5 21 -10z m45 -3 c0 -8 -7 -14 -15 -14 -8 0 -15 6 -15 14 0 7 7 13 15
13 8 0 15 -6 15 -13z m40 3 c0 -5 -4 -10 -10 -10 -5 0 -10 5 -10 10 0 6 5 10
10 10 6 0 10 -4 10 -10z m60 0 c0 -5 -7 -10 -16 -10 -8 0 -12 5 -9 10 3 6 10
10 16 10 5 0 9 -4 9 -10z m233 -5 c-3 -9 -8 -14 -10 -11 -3 3 -2 9 2 15 9 16
15 13 8 -4z m1535 -3 c2 -7 -2 -10 -12 -6 -9 3 -16 11 -16 16 0 13 23 5 28
-10z m-1956 -39 c3 -42 -7 -73 -25 -73 -7 0 -17 102 -11 111 3 5 11 9 19 9 8
0 14 -16 17 -47z m210 17 c-4 -25 -1 -29 12 -24 13 5 15 2 9 -14 -14 -37 -28
-28 -31 21 -2 26 1 47 6 47 5 0 7 -14 4 -30z m68 -15 c0 -33 -4 -45 -15 -45
-11 0 -15 12 -15 45 0 33 4 45 15 45 11 0 15 -12 15 -45z m50 5 c0 -22 -2 -40
-4 -40 -2 0 -10 -2 -18 -5 -10 -4 -12 5 -10 40 5 59 32 64 32 5z m47 34 c-3
-3 -12 -4 -19 -1 -8 3 -5 6 6 6 11 1 17 -2 13 -5z m186 -42 c-3 -26 -11 -42
-19 -42 -21 0 -18 67 3 79 10 5 19 9 20 8 1 -2 -1 -21 -4 -45z m1457 33 c9
-11 10 -15 1 -15 -7 0 -19 7 -27 15 -13 13 -13 15 -1 15 8 0 20 -7 27 -15z
m-1553 -17 c-3 -8 -6 -5 -6 6 -1 11 2 17 5 13 3 -3 4 -12 1 -19z m49 6 c-3 -9
-6 -27 -6 -40 0 -15 -6 -24 -16 -24 -11 0 -13 6 -8 23 4 12 8 30 8 40 0 9 7
17 14 17 9 0 12 -6 8 -16z m74 -28 c-4 -19 -5 -37 -2 -40 3 -4 0 -6 -7 -6 -9
0 -11 8 -7 23 3 12 6 32 6 45 0 13 4 21 9 18 5 -3 5 -21 1 -40z m69 27 c-1
-23 -17 -71 -18 -58 -1 6 -6 3 -11 -5 -8 -13 -10 -13 -10 1 0 38 13 79 26 79
8 0 14 -8 13 -17z m25 -22 c-4 -17 -9 -30 -11 -27 -3 2 -2 19 2 36 4 17 9 30
11 27 2 -2 1 -18 -2 -36z m79 19 c-3 -11 -7 -20 -8 -20 -1 0 -5 9 -8 20 -3 12
0 20 8 20 8 0 11 -8 8 -20z m57 5 c0 -1 -9 -5 -20 -8 -12 -3 -20 0 -20 8 0 8
8 11 20 8 11 -3 20 -7 20 -8z m50 8 c-1 -29 -40 -41 -40 -13 0 13 7 20 20 20
11 0 20 -3 20 -7z m1224 -2 c17 -6 17 -8 4 -14 -9 -3 -24 1 -35 8 -14 11 -15
14 -3 14 8 0 24 -4 34 -8z m-1904 -47 c0 -27 -4 -34 -20 -34 -22 0 -23 3 -14
48 8 42 34 31 34 -14z m183 16 c-7 -25 -23 -37 -23 -16 0 23 11 46 20 41 5 -3
6 -14 3 -25z m547 20 c0 -5 -9 -14 -20 -20 -22 -12 -23 -10 -14 14 7 17 34 22
34 6z m48 -2 c-4 -12 -38 -21 -38 -9 0 12 12 21 28 21 7 0 12 -5 10 -12z
m-894 -40 c4 -24 3 -38 -4 -38 -5 0 -10 19 -10 42 0 49 5 47 14 -4z m351 32
c3 -5 1 -10 -4 -10 -6 0 -11 5 -11 10 0 6 2 10 4 10 3 0 8 -4 11 -10z m595
-10 c0 -14 -15 -19 -29 -10 -17 10 -5 31 14 23 8 -3 15 -9 15 -13z m600 0 c0
-5 -2 -10 -4 -10 -3 0 -8 5 -11 10 -3 6 -1 10 4 10 6 0 11 -4 11 -10z m-1223
-32 c-3 -7 -5 -2 -5 12 0 14 2 19 5 13 2 -7 2 -19 0 -25z m2138 0 c-4 -18 -8
-41 -8 -50 -1 -15 -11 -18 -52 -18 l-50 0 35 18 c24 11 38 27 45 50 5 17 16
32 23 32 11 0 13 -8 7 -32z m-1808 0 c-3 -8 -6 -5 -6 6 -1 11 2 17 5 13 3 -3
4 -12 1 -19z m-610 -10 c-3 -8 -6 -5 -6 6 -1 11 2 17 5 13 3 -3 4 -12 1 -19z
m760 0 c-3 -8 -6 -5 -6 6 -1 11 2 17 5 13 3 -3 4 -12 1 -19z m114 8 c5 3 9 -4
9 -15 0 -11 -4 -23 -10 -26 -5 -3 -10 0 -10 7 0 9 -3 9 -10 -2 -11 -17 -13 -5
-3 30 4 13 8 19 11 12 2 -7 8 -10 13 -6z m2927 -16 c3 -31 -17 -70 -35 -70 -9
0 -6 7 7 20 30 30 26 55 -10 58 -27 2 -30 -1 -30 -27 0 -17 -4 -33 -10 -36 -6
-4 -7 1 -3 12 6 16 5 16 -10 4 -15 -12 -17 -10 -17 22 0 38 12 45 76 43 24 -1
30 -6 32 -26z m-3958 0 c0 -11 -4 -20 -9 -20 -5 0 -7 9 -4 20 3 11 7 20 9 20
2 0 4 -9 4 -20z m3410 -2 c-4 -39 0 -58 9 -58 5 0 12 10 14 23 3 16 5 13 6
-10 0 -18 6 -33 12 -33 5 0 7 5 4 10 -3 6 -3 15 1 21 8 13 24 -8 24 -32 0 -12
-15 -19 -52 -27 -29 -5 -54 -9 -55 -9 0 1 -4 32 -8 70 l-7 67 27 0 c21 0 26
-4 25 -22z m59 -5 c-1 -19 -3 -22 -6 -10 -3 13 -11 17 -24 14 -10 -3 -19 -2
-19 2 0 13 12 21 32 21 13 0 18 -7 17 -27z m41 23 c0 -3 -4 -8 -10 -11 -5 -3
-10 -1 -10 4 0 6 5 11 10 11 6 0 10 -2 10 -4z m90 -25 c0 -17 -5 -33 -10 -36
-7 -4 -8 3 -4 21 5 19 4 25 -5 20 -6 -4 -11 -1 -12 6 0 9 -2 9 -5 1 -3 -6 2
-28 10 -48 20 -46 20 -42 -4 -48 -18 -5 -20 0 -20 47 0 57 4 66 32 66 13 0 18
-8 18 -29z m17 -58 c-2 -16 -4 -3 -4 27 0 30 2 43 4 28 2 -16 2 -40 0 -55z
m131 55 c1 -13 3 -32 4 -42 2 -10 -3 -21 -9 -23 -9 -3 -13 9 -13 41 0 46 17
67 18 24z m92 -23 c0 -41 -2 -45 -25 -45 -22 0 -25 4 -25 38 0 43 5 52 32 52
15 0 18 -8 18 -45z m286 15 c8 0 11 -6 8 -15 -4 -8 -12 -15 -19 -15 -6 0 -17
-10 -23 -22 -11 -21 -11 -21 -6 7 10 52 17 71 21 58 3 -7 11 -13 19 -13z m21
14 c-3 -3 -12 -4 -19 -1 -8 3 -5 6 6 6 11 1 17 -2 13 -5z m26 -10 c-3 -9 0
-20 8 -26 11 -8 10 -9 -3 -4 -15 4 -18 -1 -18 -24 0 -17 -4 -30 -9 -30 -8 0
-6 23 5 78 2 12 9 22 14 22 5 0 7 -7 3 -16z m77 0 c0 -8 -4 -12 -10 -9 -5 3
-10 -2 -10 -11 0 -16 2 -15 22 2 21 19 21 19 15 -6 -4 -14 -7 -30 -7 -36 0
-11 -49 -38 -56 -31 -3 3 10 60 21 95 6 17 25 15 25 -4z m-213 -26 c-3 -7 -5
-2 -5 12 0 14 2 19 5 13 2 -7 2 -19 0 -25z m-377 -3 c0 -14 -4 -25 -9 -25 -4
0 -6 11 -3 25 2 14 6 25 8 25 2 0 4 -11 4 -25z m17 -32 c-3 -10 -5 -2 -5 17 0
19 2 27 5 18 2 -10 2 -26 0 -35z m693 12 c0 -5 -5 -3 -10 5 -5 8 -10 20 -10
25 0 6 5 3 10 -5 5 -8 10 -19 10 -25z m-3360 21 c0 -3 -4 -8 -10 -11 -5 -3
-10 -1 -10 4 0 6 5 11 10 11 6 0 10 -2 10 -4z m-227 -102 l-8 -69 -95 2 c-146
2 -373 5 -389 4 -8 -1 -12 -4 -8 -7 11 -11 106 -17 299 -18 181 -1 188 -2 188
-21 1 -18 1 -19 11 -2 5 9 19 17 29 17 11 0 20 5 20 10 0 6 -7 10 -15 10 -9 0
-15 9 -15 25 0 14 5 25 11 25 6 0 9 -6 6 -14 -3 -8 1 -20 9 -26 8 -7 14 -18
14 -25 0 -7 6 -13 13 -12 6 0 34 -1 61 -1 l49 -2 -44 -32 c-30 -22 -53 -31
-72 -29 -25 2 -28 0 -22 -18 4 -14 0 -23 -13 -30 -11 -6 -22 -8 -24 -5 -11 10
-47 12 -81 4 -35 -7 -36 -7 -33 19 2 14 1 19 -1 10 -5 -21 -67 -23 -88 -3 -8
9 -15 11 -15 5 0 -5 -8 -11 -17 -13 -10 -2 5 -8 32 -12 64 -10 97 -39 84 -72
-7 -19 -5 -26 6 -31 12 -4 13 -8 3 -20 -10 -12 -44 -13 -222 -8 -226 8 -277
14 -284 33 -3 9 15 12 62 12 l66 0 2 33 1 32 4 -31 c5 -38 15 -41 174 -43 95
-2 107 0 111 16 3 10 1 27 -3 38 -4 11 -8 14 -8 8 -1 -7 -6 -13 -12 -13 -5 0
-7 5 -4 10 4 7 -3 9 -22 5 -21 -5 -24 -4 -13 4 13 9 13 11 -1 11 -23 0 -32 28
-11 33 9 2 -2 3 -26 2 -24 -2 -46 -5 -49 -9 -4 -3 -2 -6 3 -6 6 0 19 -7 30
-15 18 -14 16 -14 -16 -8 -19 3 -38 10 -41 16 -4 5 -27 12 -53 14 -38 5 -46 3
-46 -11 0 -9 -5 -16 -11 -16 -6 0 -9 6 -6 13 8 20 -8 40 -34 44 -13 2 -26 7
-29 11 -3 4 -18 9 -35 10 -16 2 -39 4 -50 6 -35 6 -37 -5 -8 -37 l28 -31 -27
17 -28 17 0 -97 c0 -104 -7 -146 -21 -137 -5 3 -9 -15 -9 -39 0 -57 -10 -107
-21 -107 -5 0 -9 22 -9 48 l0 48 -92 36 c-51 20 -140 46 -198 58 -137 29 -133
28 -127 44 4 10 -2 16 -15 18 -12 2 -23 9 -26 16 -3 10 48 11 252 6 l256 -7 0
51 c0 31 -5 52 -12 55 -21 6 -48 -4 -48 -19 0 -9 -11 -14 -30 -14 -25 0 -30
-4 -30 -25 0 -16 -6 -25 -16 -25 -11 0 -15 9 -13 33 3 53 0 64 -22 70 -14 4
-18 10 -13 19 6 10 5 11 -8 1 -8 -7 -18 -10 -21 -6 -4 3 -13 0 -22 -7 -21 -18
-29 -6 -13 19 14 22 28 28 28 11 0 -5 5 -10 10 -10 6 0 10 9 10 20 0 11 2 20
5 20 2 0 34 11 70 25 l65 24 0 -26 c0 -17 -4 -24 -14 -20 -17 7 -26 -30 -15
-59 4 -10 8 -14 8 -7 1 6 15 20 32 31 22 14 27 21 16 25 -8 3 -14 17 -13 33 1
24 8 31 51 46 71 26 185 55 295 74 102 18 360 34 373 23 5 -4 5 -37 0 -75z
m3217 79 c-8 -3 -18 -11 -22 -17 -5 -7 -8 -4 -8 7 0 11 7 17 23 16 15 0 17 -2
7 -6z m-3040 -12 c0 -32 -14 -41 -66 -41 -51 0 -54 1 -54 25 0 24 3 25 60 25
33 0 60 -4 60 -9z m-1285 -11 c3 -5 1 -10 -4 -10 -6 0 -11 5 -11 10 0 6 2 10
4 10 3 0 8 -4 11 -10z m1338 -64 c-4 -77 -7 -86 -26 -67 -9 11 -9 15 2 18 11
4 11 7 0 13 -10 7 -10 12 0 23 8 10 8 17 2 21 -6 4 -8 13 -5 20 3 8 0 17 -5
21 -16 9 -4 24 18 22 16 -1 17 -9 14 -71z m42 54 c0 -7 -6 -15 -12 -17 -8 -3
-13 4 -13 17 0 13 5 20 13 18 6 -3 12 -11 12 -18z m2154 -37 c1 -7 -3 -13 -9
-13 -5 0 -10 17 -9 38 1 33 2 34 9 12 4 -14 8 -31 9 -37z m-642 13 c-2 -31 -3
-33 -27 -22 -24 11 -24 11 -2 14 14 2 22 10 22 23 0 10 2 19 5 19 3 0 4 -15 2
-34z m422 2 c-1 -31 -1 -31 -8 -8 -5 14 -6 28 -4 33 9 15 13 6 12 -25z m-113
-35 c-10 -10 -19 5 -10 18 6 11 8 11 12 0 2 -7 1 -15 -2 -18z m-106 2 c0 -8
-4 -15 -10 -15 -5 0 -10 7 -10 15 0 8 5 15 10 15 6 0 10 -7 10 -15z m144 -30
c5 -22 4 -26 -4 -15 -5 8 -10 24 -10 34 0 26 6 18 14 -19z m119 15 c3 -11 1
-18 -4 -14 -5 3 -9 12 -9 20 0 20 7 17 13 -6z m-2103 -30 c0 -5 -4 -10 -9 -10
-6 0 -13 5 -16 10 -3 6 1 10 9 10 9 0 16 -4 16 -10z m17 -22 c-3 -8 -6 -5 -6
6 -1 11 2 17 5 13 3 -3 4 -12 1 -19z m-897 -155 c-1 -19 -19 -35 -34 -30 -26
10 -19 37 9 37 14 0 25 -3 25 -7z m730 1 c0 0 -8 -8 -18 -17 -16 -15 -18 -15
-19 3 -1 13 4 18 18 17 10 -1 19 -2 19 -3z m-625 -74 c0 -7 -6 -15 -12 -17 -8
-3 -13 4 -13 17 0 13 5 20 13 18 6 -3 12 -11 12 -18z m3013 -25 c2 -2 -14 -4
-37 -3 -33 0 -41 4 -41 19 0 18 2 18 37 4 20 -9 39 -17 41 -20z m-3011 -77
c-2 -13 -4 -3 -4 22 0 25 2 35 4 23 2 -13 2 -33 0 -45z m94 2 c14 0 19 7 19
30 0 17 4 30 8 30 5 0 7 -14 4 -30 -4 -28 -3 -30 19 -21 15 5 24 16 23 30 0
11 3 21 8 21 4 0 8 -9 8 -20 0 -30 40 -27 41 3 1 16 2 18 6 5 4 -17 53 -27 53
-10 0 4 51 8 113 10 137 4 137 -12 0 -28 -106 -12 -213 -32 -296 -56 -44 -13
-60 -15 -69 -6 -9 9 -8 15 5 24 9 7 19 24 21 38 8 44 9 46 13 13 3 -25 9 -33
24 -33z m2659 44 c0 -2 -7 -4 -15 -4 -8 0 -15 4 -15 10 0 5 7 7 15 4 8 -4 15
-8 15 -10z m140 2 c0 -11 -19 -15 -25 -6 -3 5 1 10 9 10 9 0 16 -2 16 -4z
m-3280 -46 c0 -5 5 -10 11 -10 5 0 7 5 4 10 -3 6 0 10 8 10 10 0 13 -7 10 -20
-6 -22 12 -28 20 -7 4 9 8 8 16 -3 8 -11 13 -12 19 -3 5 8 13 9 22 3 11 -7 12
-10 2 -10 -7 0 -11 -4 -7 -9 9 -15 -13 -23 -33 -12 -10 5 -53 11 -95 12 -78 2
-111 19 -37 19 29 0 40 4 40 15 0 8 5 15 10 15 6 0 10 -4 10 -10z m3200 0 c0
-5 -6 -10 -14 -10 -8 0 -18 5 -21 10 -3 6 3 10 14 10 12 0 21 -4 21 -10z m325
-10 c-3 -5 -1 -10 4 -10 6 0 11 -7 11 -15 0 -9 -9 -15 -24 -15 -18 0 -23 5
-23 25 0 18 5 25 19 25 10 0 16 -4 13 -10z m712 -6 c-3 -3 -12 -4 -19 -1 -8 3
-5 6 6 6 11 1 17 -2 13 -5z m-4354 -11 c-7 -2 -19 -2 -25 0 -7 3 -2 5 12 5 14
0 19 -2 13 -5z m277 -3 c0 -5 -5 -10 -11 -10 -5 0 -7 5 -4 10 3 6 8 10 11 10
2 0 4 -4 4 -10z m3030 -51 c0 -5 -7 -9 -15 -9 -9 0 -12 6 -9 15 6 15 24 11 24
-6z m10 -29 c0 -5 -7 -10 -15 -10 -8 0 -15 5 -15 10 0 6 7 10 15 10 8 0 15 -4
15 -10z m350 -25 c15 -18 -13 -26 -60 -19 -40 7 -74 11 -127 13 -72 4 -2 19
89 19 60 0 90 -4 98 -13z m-2930 -15 c0 -5 -4 -10 -10 -10 -5 0 -10 5 -10 10
0 6 5 10 10 10 6 0 10 -4 10 -10z m2987 -6 c-3 -3 -12 -4 -19 -1 -8 3 -5 6 6
6 11 1 17 -2 13 -5z m43 -4 c0 -5 -4 -10 -10 -10 -5 0 -10 5 -10 10 0 6 5 10
10 10 6 0 10 -4 10 -10z m97 -10 c-1 -11 -5 -20 -9 -20 -4 0 -8 9 -8 20 0 11
4 20 9 20 6 0 9 -9 8 -20z m329 -68 c-12 -11 -15 5 -8 48 l7 45 3 -44 c2 -23
1 -46 -2 -49z m-909 36 c-3 -7 -5 -2 -5 12 0 14 2 19 5 13 2 -7 2 -19 0 -25z
m993 16 c0 -8 -5 -12 -10 -9 -6 4 -8 11 -5 16 9 14 15 11 15 -7z m218 -13 c3
-8 -1 -12 -9 -9 -7 2 -15 10 -17 17 -3 8 1 12 9 9 7 -2 15 -10 17 -17z m-683
-17 c11 2 27 6 35 8 9 2 16 -6 18 -19 4 -25 -8 -29 -36 -14 -9 5 -25 12 -34
15 -10 3 -18 11 -18 18 0 10 2 10 8 1 4 -7 17 -11 27 -9z m-3700 -23 c12 -5
-10 -8 -60 -8 -72 0 -75 1 -30 7 69 10 68 10 90 1z m131 -9 c-44 -2 -83 1 -87
5 -4 4 31 6 79 3 l87 -5 -79 -3z m3202 -1 c2 -6 8 -11 13 -11 4 0 6 7 2 16 -5
14 -2 16 23 9 83 -22 157 -30 324 -35 81 -2 249 -25 259 -36 3 -3 -30 -3 -74
0 -44 3 -136 9 -205 12 -113 5 -174 8 -322 13 -36 1 -48 5 -48 17 0 14 -2 14
-16 -1 -10 -10 -25 -14 -38 -11 -12 3 -28 6 -37 6 -9 0 -19 10 -22 21 -6 21
-3 21 66 16 39 -2 73 -10 75 -16z m-3040 2 c-16 -2 -40 -2 -55 0 -16 2 -3 4
27 4 30 0 43 -2 28 -4z m62 -3 c0 -5 -5 -10 -11 -10 -5 0 -7 5 -4 10 3 6 8 10
11 10 2 0 4 -4 4 -10z m158 -7 c-21 -2 -57 -2 -80 0 -24 2 -7 4 37 4 44 0 63
-2 43 -4z m1633 -16 c-10 -9 -11 -8 -5 6 3 10 9 15 12 12 3 -3 0 -11 -7 -18z
m-1668 -34 c-7 -2 -19 -2 -25 0 -7 3 -2 5 12 5 14 0 19 -2 13 -5z m417 -13
c12 -8 12 -10 -5 -10 -11 0 -27 5 -35 10 -12 8 -12 10 5 10 11 0 27 -5 35 -10z
m2271 -13 c-10 -9 -11 -8 -5 6 3 10 9 15 12 12 3 -3 0 -11 -7 -18z m-3429 -37
c2 -22 -1 -41 -7 -44 -10 -4 -18 48 -10 72 8 22 13 13 17 -28z m2361 6 c-6
-28 -33 -44 -33 -20 0 22 20 55 29 50 5 -3 6 -17 4 -30z m-2133 -16 c0 -5 -4
-10 -10 -10 -5 0 -10 5 -10 10 0 6 5 10 10 10 6 0 10 -4 10 -10z m-260 -10 c0
-12 -44 -24 -62 -17 -8 3 -4 9 12 15 32 14 50 14 50 2z m2530 -10 c0 -14 -7
-20 -21 -20 -15 0 -19 -4 -15 -16 3 -9 6 -20 6 -25 0 -6 8 -6 19 1 14 7 22 7
26 0 4 -6 16 -8 28 -4 22 6 22 6 2 -13 -11 -11 -25 -18 -31 -16 -6 2 -16 -3
-23 -11 -10 -12 -7 -13 24 -6 20 5 60 18 90 30 43 17 57 19 72 10 12 -8 13
-10 2 -7 -8 3 -26 -6 -38 -19 -13 -14 -26 -22 -29 -19 -3 2 -11 -3 -18 -13
-10 -12 -13 -13 -14 -3 0 11 -3 11 -16 0 -9 -7 -23 -14 -32 -15 -8 -2 -28 -12
-43 -23 -25 -19 -28 -19 -22 -4 6 16 4 16 -15 -1 -12 -11 -22 -17 -23 -15 0 2
-2 14 -5 27 -3 16 2 25 19 32 21 8 10 15 -20 11 -12 -2 -29 53 -24 79 4 18 44
43 99 59 1 1 2 -8 2 -19z m1590 5 c0 -8 -4 -15 -10 -15 -5 0 -10 7 -10 15 0 8
5 15 10 15 6 0 10 -7 10 -15z m-1730 -25 c0 -5 -5 -10 -11 -10 -5 0 -7 5 -4
10 3 6 8 10 11 10 2 0 4 -4 4 -10z m-1450 -9 c0 -6 -4 -13 -10 -16 -5 -3 -10
1 -10 9 0 9 5 16 10 16 6 0 10 -4 10 -9z m3167 -28 c-3 -10 -5 -4 -5 12 0 17
2 24 5 18 2 -7 2 -21 0 -30z m-1739 -9 c-1 -5 -9 -9 -16 -10 -10 -2 -11 1 -1
12 12 14 24 13 17 -2z m2398 -19 c-6 -16 -88 -20 -135 -6 l-24 6 28 13 c17 8
31 9 34 4 3 -5 25 -11 49 -14 37 -3 42 -1 43 17 0 11 3 14 6 7 3 -7 2 -19 -1
-27z m-4606 5 c0 -5 -7 -10 -15 -10 -8 0 -15 5 -15 10 0 6 7 10 15 10 8 0 15
-4 15 -10z m360 0 c0 -5 -4 -10 -10 -10 -5 0 -10 5 -10 10 0 6 5 10 10 10 6 0
10 -4 10 -10z m3871 0 c13 -7 19 -7 19 0 0 5 5 10 10 10 6 0 10 -7 10 -15 0
-11 -12 -15 -50 -15 -49 0 -68 14 -32 23 9 3 18 5 20 6 2 0 12 -4 23 -9z
m-1591 -21 c0 -6 -16 -30 -35 -53 -19 -24 -35 -53 -35 -65 0 -11 -4 -21 -9
-21 -9 0 -83 -88 -159 -188 -23 -31 -61 -92 -83 -135 -28 -52 -46 -76 -55 -73
-9 3 -14 -1 -14 -11 0 -11 -9 -5 -25 17 -14 19 -25 44 -25 56 0 12 -16 39 -35
60 -26 30 -35 48 -35 77 0 37 0 37 34 33 32 -4 36 -2 45 27 5 18 12 56 15 86
7 69 27 91 80 91 44 0 103 14 151 35 68 31 102 47 134 65 34 19 51 18 51 -1z
m1050 -19 c0 -5 -4 -10 -10 -10 -5 0 -10 5 -10 10 0 6 5 10 10 10 6 0 10 -4
10 -10z m217 -36 c-3 -3 -12 -4 -19 -1 -8 3 -5 6 6 6 11 1 17 -2 13 -5z
m-1647 -8 c0 -3 -4 -8 -10 -11 -5 -3 -10 -1 -10 4 0 6 5 11 10 11 6 0 10 -2
10 -4z m1570 -166 c0 -5 -7 -7 -15 -4 -8 4 -15 8 -15 10 0 2 7 4 15 4 8 0 15
-4 15 -10z m588 -11 c-2 -6 -8 -10 -13 -10 -5 0 -11 4 -13 10 -2 6 4 11 13 11
9 0 15 -5 13 -11z m199 5 c-3 -3 -12 -4 -19 -1 -8 3 -5 6 6 6 11 1 17 -2 13
-5z m-4227 -33 c5 -11 10 -36 10 -56 0 -35 2 -37 25 -31 21 5 25 3 25 -18 0
-24 -47 -118 -62 -124 -4 -2 -8 -11 -8 -19 0 -10 -6 -14 -20 -10 -11 3 -20 1
-20 -4 0 -5 -4 -9 -8 -9 -13 0 -12 42 3 70 10 20 11 30 3 38 -8 8 -7 21 5 49
22 51 17 79 -14 76 -13 -1 -18 0 -11 3 6 3 12 14 12 24 0 32 44 40 60 11z
m-110 -11 c0 -5 -8 -10 -17 -10 -15 0 -16 2 -3 10 19 12 20 12 20 0z m3615 1
c3 -5 1 -12 -4 -16 -6 -3 -8 -12 -4 -20 3 -8 0 -15 -6 -15 -6 0 -10 3 -10 8 4
22 -3 32 -21 32 -11 0 -20 5 -20 10 0 13 57 13 65 1z m265 -11 c0 -5 -5 -10
-12 -10 -18 0 -3 -10 22 -15 27 -5 36 -12 27 -22 -4 -3 -19 -1 -33 6 -19 8
-30 9 -38 1 -13 -13 -66 -13 -66 0 0 8 37 15 63 11 4 0 7 4 7 9 0 6 -6 10 -12
11 -7 0 -4 4 7 9 27 12 35 12 35 0z m-3695 -28 c-3 -3 -11 0 -18 7 -9 10 -8
11 6 5 10 -3 15 -9 12 -12z m3650 -44 c6 -6 1 -7 -15 -3 -14 3 -35 7 -47 8
-13 0 -23 5 -23 8 0 10 72 -1 85 -13z m-3850 2 c3 -5 -1 -10 -9 -10 -9 0 -16
5 -16 10 0 6 4 10 9 10 6 0 13 -4 16 -10z m68 -7 c-7 -2 -21 -2 -30 0 -10 3
-4 5 12 5 17 0 24 -2 18 -5z m-343 -17 c0 -3 -4 -8 -10 -11 -5 -3 -10 -1 -10
4 0 6 5 11 10 11 6 0 10 -2 10 -4z m4090 -25 c0 -4 -12 -6 -27 -5 -38 2 -40 3
-24 13 14 9 51 3 51 -8z m33 -28 c-7 -2 -21 -2 -30 0 -10 3 -4 5 12 5 17 0 24
-2 18 -5z m-3829 -19 c24 -9 9 -24 -25 -24 -29 0 -40 14 -16 23 18 8 23 8 41
1z m3766 2 c0 -2 -7 -7 -16 -10 -8 -3 -12 -2 -9 4 6 10 25 14 25 6z m43 -3
c-7 -2 -19 -2 -25 0 -7 3 -2 5 12 5 14 0 19 -2 13 -5z m92 -3 c7 -12 -12 -12
-40 0 -18 8 -17 9 7 9 15 1 30 -3 33 -9z m-4398 -16 c-3 -3 -12 -4 -19 -1 -8
3 -5 6 6 6 11 1 17 -2 13 -5z m410 0 c-3 -3 -12 -4 -19 -1 -8 3 -5 6 6 6 11 1
17 -2 13 -5z m3986 -4 c52 0 76 -4 72 -10 -4 -7 -30 -9 -66 -6 -37 4 -59 2
-59 -5 0 -6 3 -8 8 -6 4 3 25 1 47 -3 l40 -8 -55 -3 -55 -3 69 -5 c45 -4 70
-11 72 -19 1 -7 0 -8 -3 -2 -2 5 -12 10 -21 10 -15 0 -15 -2 -2 -11 11 -8 7
-9 -15 -3 -16 5 -61 9 -100 10 -104 3 -103 3 -86 13 8 5 20 7 28 4 7 -3 13 0
13 6 0 6 -6 11 -12 12 -7 0 -4 4 7 9 18 8 18 9 2 9 -10 1 -15 6 -11 12 3 6 16
8 28 5 11 -3 56 -6 99 -6z m-170 -27 c-7 -2 -19 -2 -25 0 -7 3 -2 5 12 5 14 0
19 -2 13 -5z m-3878 -23 c-3 -5 -13 -10 -21 -10 -8 0 -12 5 -9 10 3 6 13 10
21 10 8 0 12 -4 9 -10z m50 0 c-3 -5 -10 -10 -16 -10 -5 0 -9 5 -9 10 0 6 7
10 16 10 8 0 12 -4 9 -10z m4122 4 c-3 -3 -12 -4 -19 -1 -8 3 -5 6 6 6 11 1
17 -2 13 -5z m-4512 -14 c3 -5 1 -10 -4 -10 -6 0 -11 5 -11 10 0 6 2 10 4 10
3 0 8 -4 11 -10z m575 -12 c0 -28 -17 -41 -36 -29 -11 6 -13 11 -6 11 6 0 12
7 12 15 0 8 7 15 15 15 8 0 15 -6 15 -12z m-517 -5 c-7 -2 -19 -2 -25 0 -7 3
-2 5 12 5 14 0 19 -2 13 -5z m2408 -16 c-10 -9 -11 -8 -5 6 3 10 9 15 12 12 3
-3 0 -11 -7 -18z m1899 14 c0 -5 -9 -7 -20 -4 -11 3 -20 7 -20 9 0 2 9 4 20 4
11 0 20 -4 20 -9z m-3890 -10 c-18 -5 -21 -9 -11 -15 11 -7 11 -10 0 -17 -8
-5 -18 -9 -24 -9 -5 0 -4 4 4 9 9 6 10 11 2 15 -21 14 -11 26 22 25 29 -1 30
-2 7 -8z m697 -13 c-3 -8 -6 -5 -6 6 -1 11 2 17 5 13 3 -3 4 -12 1 -19z m-767
-8 c0 -5 -9 -10 -21 -10 -11 0 -17 -4 -14 -10 3 -5 -1 -10 -9 -10 -23 0 -8 28
17 33 12 2 23 5 25 6 1 0 2 -3 2 -9z m-213 -6 c-3 -3 -12 -4 -19 -1 -8 3 -5 6
6 6 11 1 17 -2 13 -5z m358 -15 c12 -18 -3 -22 -20 -5 -14 14 -14 16 -1 16 8
0 18 -5 21 -11z m609 -28 c-4 -17 -9 -30 -11 -27 -3 2 -2 19 2 36 9 41 17 33
9 -9z m3123 33 c-3 -3 -12 -4 -19 -1 -8 3 -5 6 6 6 11 1 17 -2 13 -5z m-4012
-34 c3 -5 -1 -10 -10 -10 -9 0 -13 5 -10 10 3 6 8 10 10 10 2 0 7 -4 10 -10z
m-105 -40 c-8 -5 -24 -9 -35 -9 -16 1 -16 2 5 9 35 11 48 11 30 0z m337 -6
c-3 -3 -12 -4 -19 -1 -8 3 -5 6 6 6 11 1 17 -2 13 -5z"/>
<path d="M2365 1480 c3 -5 10 -10 16 -10 5 0 9 5 9 10 0 6 -7 10 -16 10 -8 0
-12 -4 -9 -10z"/>
<path d="M1960 1341 c0 -5 5 -13 10 -16 6 -3 10 -2 10 4 0 5 -4 13 -10 16 -5
3 -10 2 -10 -4z"/>
<path d="M2190 1048 c0 -9 5 -20 10 -23 6 -4 8 -11 5 -16 -4 -5 -2 -9 3 -9 6
0 23 -21 38 -47 15 -27 34 -54 41 -61 7 -8 11 -18 8 -23 -4 -5 -2 -9 4 -9 14
0 28 -28 34 -68 7 -43 17 -54 17 -18 0 31 -26 85 -79 165 -21 31 -47 72 -59
91 -13 22 -22 29 -22 18z"/>
<path d="M2350 820 c0 -5 5 -10 11 -10 5 0 7 5 4 10 -3 6 -8 10 -11 10 -2 0
-4 -4 -4 -10z"/>
<path d="M2367 707 c-10 -10 -15 -22 -12 -27 8 -13 37 16 33 33 -2 9 -8 7 -21
-6z"/>
<path d="M2411 604 c0 -11 3 -14 6 -6 3 7 2 16 -1 19 -3 4 -6 -2 -5 -13z"/>
<path d="M2810 1979 c0 -5 5 -7 10 -4 6 3 10 8 10 11 0 2 -4 4 -10 4 -5 0 -10
-5 -10 -11z"/>
<path d="M2848 1983 c7 -3 16 -2 19 1 4 3 -2 6 -13 5 -11 0 -14 -3 -6 -6z"/>
<path d="M3620 2021 c0 -5 5 -13 10 -16 6 -3 10 -2 10 4 0 5 -4 13 -10 16 -5
3 -10 2 -10 -4z"/>
<path d="M2055 1940 c3 -5 8 -10 11 -10 2 0 4 5 4 10 0 6 -5 10 -11 10 -5 0
-7 -4 -4 -10z"/>
<path d="M2085 1920 c-3 -5 -2 -10 4 -10 5 0 13 5 16 10 3 6 2 10 -4 10 -5 0
-13 -4 -16 -10z"/>
<path d="M3990 1743 c0 -5 4 -14 9 -21 6 -10 10 -9 14 7 3 14 0 21 -9 21 -8 0
-14 -3 -14 -7z"/>
<path d="M4041 1664 c0 -11 3 -14 6 -6 3 7 2 16 -1 19 -3 4 -6 -2 -5 -13z"/>
<path d="M843 1533 c9 -2 23 -2 30 0 6 3 -1 5 -18 5 -16 0 -22 -2 -12 -5z"/>
<path d="M975 1500 c3 -5 11 -10 16 -10 6 0 7 5 4 10 -3 6 -11 10 -16 10 -6 0
-7 -4 -4 -10z"/>
<path d="M710 1468 c0 -7 5 -20 10 -28 8 -12 10 -11 10 7 0 12 -4 25 -10 28
-5 3 -10 0 -10 -7z"/>
<path d="M970 1451 c0 -5 7 -11 15 -15 9 -3 15 0 15 9 0 8 -7 15 -15 15 -8 0
-15 -4 -15 -9z"/>
<path d="M1220 1435 c0 -9 6 -12 15 -9 8 4 12 10 9 15 -8 14 -24 10 -24 -6z"/>
<path d="M1095 1430 c3 -5 8 -10 11 -10 2 0 4 5 4 10 0 6 -5 10 -11 10 -5 0
-7 -4 -4 -10z"/>
<path d="M355 1283 c17 -2 40 -9 53 -15 19 -10 25 -9 32 2 7 12 10 12 16 -3 7
-18 34 -24 34 -7 0 6 5 10 10 10 6 0 10 -6 10 -14 0 -8 7 -16 15 -20 10 -4 15
1 15 14 0 27 18 25 22 -2 2 -13 11 -24 21 -26 13 -3 17 4 18 25 l1 28 7 -30
c9 -43 39 -45 44 -3 l4 33 1 -36 c3 -55 29 -59 34 -5 l3 43 -125 7 c-130 6
-268 6 -215 -1z"/>
<path d="M2543 759 c-15 -5 -20 -14 -16 -28 7 -28 25 -26 40 4 13 29 7 36 -24
24z"/>
<path d="M2512 380 c0 -14 2 -19 5 -12 2 6 2 18 0 25 -3 6 -5 1 -5 -13z"/>
<path d="M2411 344 c0 -11 3 -14 6 -6 3 7 2 16 -1 19 -3 4 -6 -2 -5 -13z"/>
<path d="M2512 320 c0 -14 2 -19 5 -12 2 6 2 18 0 25 -3 6 -5 1 -5 -13z"/>
<path d="M2507 274 c-4 -4 -7 -17 -7 -28 1 -19 1 -20 11 -3 11 19 8 43 -4 31z"/>
<path d="M4338 183 c7 -3 16 -2 19 1 4 3 -2 6 -13 5 -11 0 -14 -3 -6 -6z"/>
<path d="M3030 2895 c0 -8 7 -15 15 -15 10 0 15 -10 15 -27 0 -14 3 -24 6 -20
12 12 -6 77 -21 77 -8 0 -15 -7 -15 -15z"/>
<path d="M110 2870 c0 -5 8 -10 18 -10 10 0 24 -6 32 -12 8 -7 6 -3 -4 10 -20
23 -46 30 -46 12z"/>
<path d="M3028 2773 c7 -3 16 -2 19 1 4 3 -2 6 -13 5 -11 0 -14 -3 -6 -6z"/>
<path d="M3062 2690 c0 -14 2 -19 5 -12 2 6 2 18 0 25 -3 6 -5 1 -5 -13z"/>
<path d="M172 2640 c0 -14 2 -19 5 -12 2 6 2 18 0 25 -3 6 -5 1 -5 -13z"/>
<path d="M3053 2610 c0 -25 2 -35 4 -22 2 12 2 32 0 45 -2 12 -4 2 -4 -23z"/>
<path d="M3035 2462 c-4 -46 -5 -85 -2 -88 7 -7 21 141 15 158 -3 7 -8 -24
-13 -70z"/>
<path d="M163 2425 c0 -27 2 -38 4 -22 2 15 2 37 0 50 -2 12 -4 0 -4 -28z"/>
<path d="M4618 2453 c6 -2 18 -2 25 0 6 3 1 5 -13 5 -14 0 -19 -2 -12 -5z"/>
<path d="M2482 2436 c7 -8 15 -12 17 -11 5 6 -10 25 -20 25 -5 0 -4 -6 3 -14z"/>
<path d="M4945 2440 c-18 -8 -17 -9 8 -9 16 -1 26 3 22 9 -3 6 -7 10 -8 9 -1
0 -11 -4 -22 -9z"/>
<path d="M154 2255 c0 -49 1 -71 3 -48 2 23 2 64 0 90 -2 26 -3 8 -3 -42z"/>
<path d="M3023 2305 c0 -22 2 -30 4 -17 2 12 2 30 0 40 -3 9 -5 -1 -4 -23z"/>
<path d="M2400 2251 c0 -6 4 -13 10 -16 6 -3 7 1 4 9 -7 18 -14 21 -14 7z"/>
<path d="M2467 2205 c10 -13 22 -25 27 -25 5 0 -1 11 -14 25 -30 32 -36 32
-13 0z"/>
<path d="M1238 2150 c-17 -30 -17 -30 6 -30 19 0 23 6 24 30 1 38 -8 38 -30 0z"/>
<path d="M70 2160 c-8 -5 -11 -12 -7 -16 4 -4 13 -2 19 4 15 15 7 24 -12 12z"/>
<path d="M3811 2154 c0 -11 3 -14 6 -6 3 7 2 16 -1 19 -3 4 -6 -2 -5 -13z"/>
<path d="M105 2150 c-4 -6 6 -10 22 -10 22 0 25 2 13 10 -19 12 -27 12 -35 0z"/>
<path d="M1812 2140 c0 -14 2 -19 5 -12 2 6 2 18 0 25 -3 6 -5 1 -5 -13z"/>
<path d="M3130 2150 c0 -6 7 -10 15 -10 8 0 15 2 15 4 0 2 -7 6 -15 10 -8 3
-15 1 -15 -4z"/>
<path d="M3195 2120 c3 -5 8 -10 11 -10 2 0 4 5 4 10 0 6 -5 10 -11 10 -5 0
-7 -4 -4 -10z"/>
<path d="M4262 2108 c-20 -20 -14 -38 14 -38 20 0 25 4 20 16 -3 9 -6 20 -6
25 0 13 -14 11 -28 -3z"/>
<path d="M61 2064 c0 -11 3 -14 6 -6 3 7 2 16 -1 19 -3 4 -6 -2 -5 -13z"/>
<path d="M561 2064 c0 -11 3 -14 6 -6 3 7 2 16 -1 19 -3 4 -6 -2 -5 -13z"/>
<path d="M305 1990 c3 -5 13 -10 21 -10 8 0 14 5 14 10 0 6 -9 10 -21 10 -11
0 -17 -4 -14 -10z"/>
<path d="M396 1992 c-2 -4 19 -8 47 -9 39 -1 46 1 27 7 -34 11 -68 12 -74 2z"/>
<path d="M1028 1983 c7 -3 16 -2 19 1 4 3 -2 6 -13 5 -11 0 -14 -3 -6 -6z"/>
<path d="M3242 1940 c0 -19 2 -27 5 -17 2 9 2 25 0 35 -3 9 -5 1 -5 -18z"/>
<path d="M3332 1748 c-7 -7 -12 -16 -12 -21 0 -5 7 -1 16 8 9 9 14 18 12 20
-2 3 -10 -1 -16 -7z"/>
<path d="M140 1718 c-12 -8 -12 -9 2 -4 10 3 18 -1 21 -12 4 -16 5 -16 6 0 1
22 -11 29 -29 16z"/>
<path d="M41 1630 c0 -8 4 -22 9 -30 12 -18 12 -2 0 25 -6 13 -9 15 -9 5z"/>
<path d="M3860 1445 c0 -8 4 -15 10 -15 5 0 7 7 4 15 -4 8 -8 15 -10 15 -2 0
-4 -7 -4 -15z"/>
<path d="M3621 1424 c0 -11 3 -14 6 -6 3 7 2 16 -1 19 -3 4 -6 -2 -5 -13z"/>
<path d="M3860 1363 c0 -5 7 -16 14 -26 13 -17 14 -16 19 2 3 12 -1 22 -10 25
-19 8 -23 7 -23 -1z"/>
<path d="M4360 1250 c0 -5 5 -10 11 -10 5 0 7 5 4 10 -3 6 -8 10 -11 10 -2 0
-4 -4 -4 -10z"/>
<path d="M4018 1163 c12 -2 30 -2 40 0 9 3 -1 5 -23 4 -22 0 -30 -2 -17 -4z"/>
<path d="M4084 1150 c0 -11 4 -20 8 -20 4 0 7 -6 6 -12 -2 -8 11 -13 34 -15
44 -3 59 12 23 21 -17 4 -25 12 -23 24 2 12 -5 18 -22 20 -20 2 -26 -2 -26
-18z"/>
<path d="M4347 1140 c7 -8 40 -16 73 -18 33 -2 60 -8 60 -12 0 -13 49 -18 53
-6 3 8 8 7 18 -1 7 -7 21 -13 30 -13 10 0 20 6 23 13 5 10 7 10 12 0 3 -7 16
-13 29 -13 13 0 25 6 28 13 3 9 -35 15 -147 23 -83 6 -160 15 -171 19 -16 6
-18 6 -8 -5z"/>
<path d="M4173 1133 c15 -2 39 -2 55 0 15 2 2 4 -28 4 -30 0 -43 -2 -27 -4z"/>
<path d="M4748 1113 c6 -2 18 -2 25 0 6 3 1 5 -13 5 -14 0 -19 -2 -12 -5z"/>
<path d="M4230 1100 c35 -11 50 -11 50 -2 0 5 -17 9 -37 9 -33 1 -35 0 -13 -7z"/>
<path d="M4815 1100 c3 -5 17 -10 30 -10 13 0 27 5 30 10 4 6 -8 10 -30 10
-22 0 -34 -4 -30 -10z"/>
<path d="M4328 1093 c6 -2 18 -2 25 0 6 3 1 5 -13 5 -14 0 -19 -2 -12 -5z"/>
<path d="M4835 369 c-11 -17 0 -20 21 -4 17 13 17 14 2 15 -9 0 -20 -5 -23
-11z"/>
<path d="M4768 333 c7 -3 16 -2 19 1 4 3 -2 6 -13 5 -11 0 -14 -3 -6 -6z"/>
<path d="M4523 309 c24 -13 88 -20 122 -13 62 11 37 22 -49 21 -47 -1 -79 -5
-73 -8z"/>
<path d="M4705 310 c-16 -7 -13 -9 18 -9 20 -1 37 4 37 9 0 12 -27 12 -55 0z"/>
<path d="M4965 180 c3 -5 13 -10 21 -10 8 0 12 5 9 10 -3 6 -13 10 -21 10 -8
0 -12 -4 -9 -10z"/>
</g>
</svg>
